<svg xmlns="http://www.w3.org/2000/svg" viewBox="0 0 512 512" enable-background="new 0 0 512 512"><style type="text/css">.st{fill:#68a3ab;}</style><path class="st" d="M408.511 326.809h-47.138c-2.378-11.44-9.647-21.371-19.681-27.195 8.252-11.251 14.345-24.177 17.662-38.167h5.692c22.526 0 40.851-18.325 40.851-40.851s-18.326-40.851-40.851-40.851h-5.705c-.734-3.103-1.609-6.172-2.624-9.205l1.851-27.062c24.31-8.615 41.774-31.827 41.774-59.052 0-34.539-28.099-62.638-62.638-62.638-8.56 0-17.022 1.762-24.833 5.136-13.91-16.979-34.681-26.924-56.871-26.924s-42.961 9.945-56.869 26.924c-7.811-3.375-16.273-5.136-24.833-5.136-34.539 0-62.638 28.099-62.638 62.638 0 27.225 17.464 50.437 41.774 59.052l1.851 27.062c-1.015 3.033-1.889 6.104-2.624 9.205h-5.705c-22.526 0-40.851 18.325-40.851 40.851s18.325 40.851 40.851 40.851h5.692c3.317 13.991 9.411 26.917 17.663 38.168-10.034 5.824-17.303 15.754-19.682 27.194h-47.139c-28.531 0-51.745 23.213-51.745 51.745v125.276c0 4.513 3.657 8.17 8.17 8.17h392.17c4.513 0 8.17-3.657 8.17-8.17v-125.277c0-28.531-23.213-51.744-51.744-51.744zm-280.511-242.383c0-25.529 20.769-46.298 46.298-46.298 8.147 0 16.17 2.157 23.2 6.24 3.732 2.167 8.504 1.06 10.898-2.531 10.654-15.966 28.45-25.497 47.604-25.497s36.95 9.531 47.604 25.495c2.394 3.589 7.169 4.697 10.898 2.531 7.03-4.082 15.053-6.239 23.2-6.239 25.529 0 46.298 20.769 46.298 46.298s-20.769 46.298-46.298 46.298c-6.604 0-12.997-1.376-19.004-4.087-4.118-1.858-8.953-.026-10.809 4.085-1.856 4.112-.027 8.952 4.085 10.809 8.135 3.672 16.79 5.534 25.727 5.534 1.43 0 2.845-.065 4.252-.16l-1.129 16.501h-169.65l-1.129-16.501c1.406.095 2.821.16 4.252.16 14.373 0 27.992-4.803 39.047-13.654 12.406 8.848 27.302 13.654 42.654 13.654 10.423 0 20.516-2.155 29.997-6.403 4.117-1.844 5.96-6.679 4.115-10.797-1.845-4.117-6.679-5.963-10.797-4.113-7.365 3.3-15.21 4.973-23.315 4.973-13.834 0-27.193-5.02-37.616-14.135-3.25-2.84-8.147-2.666-11.186.402-8.766 8.857-20.451 13.734-32.901 13.734-25.526-.002-46.295-20.77-46.295-46.299zm185.191 411.234h-179.744v-57.191c0-4.513-3.657-8.17-8.17-8.17s-8.17 3.657-8.17 8.17v57.191h-49.022v-117.107c0-19.522 15.882-35.404 35.404-35.404h54.468c4.513 0 8.17-3.657 8.17-8.17 0-9.948 6.169-18.876 15.156-22.629 19.204 19.028 45.61 30.799 74.716 30.799 21.041 0 40.672-6.151 57.191-16.747v169.258zm-57.19-168.851c-49.555 0-89.872-40.317-89.872-89.872 0-4.513-3.657-8.17-8.17-8.17s-8.17 3.657-8.17 8.17c0 2.748.105 5.473.312 8.17h-3.145c-13.515 0-24.511-10.996-24.511-24.511 0-13.515 10.996-24.511 24.511-24.511h3.157c-.207 2.71-.326 5.434-.326 8.17 0 4.513 3.657 8.17 8.17 8.17s8.17-3.657 8.17-8.17c0-8.346 1.158-16.564 3.409-24.511h172.927c2.251 7.946 3.409 16.163 3.409 24.511 0 4.513 3.657 8.17 8.17 8.17s8.17-3.657 8.17-8.17c0-2.736-.119-5.46-.326-8.17h3.157c13.515 0 24.511 10.996 24.511 24.511 0 13.515-10.994 24.511-24.508 24.511h-3.143c.206-2.697.312-5.422.312-8.17 0-4.513-3.657-8.17-8.17-8.17s-8.17 3.657-8.17 8.17c-.002 49.554-40.319 89.872-89.874 89.872zm187.914 168.851h-59.915v-57.191c0-4.513-3.657-8.17-8.17-8.17s-8.17 3.657-8.17 8.17v57.191h-38.128v-182.155c.398-.382.792-.768 1.184-1.157 8.986 3.753 15.156 12.68 15.156 22.629 0 4.513 3.657 8.17 8.17 8.17h54.468c19.522 0 35.404 15.882 35.404 35.404v117.109zm-216.783-299.575h-18.519c-4.513 0-8.17 3.657-8.17 8.17s3.657 8.17 8.17 8.17h10.814c1.121 3.173 4.148 5.447 7.705 5.447 4.513 0 8.17-3.657 8.17-8.17v-5.447c0-4.513-3.657-8.17-8.17-8.17zm76.255 0h-18.519c-4.513 0-8.17 3.657-8.17 8.17v5.447c0 4.513 3.657 8.17 8.17 8.17 3.558 0 6.584-2.274 7.705-5.447h10.814c4.513 0 8.17-3.657 8.17-8.17s-3.657-8.17-8.17-8.17zm-26.677 49.494c-4.249-1.515-8.923.709-10.434 4.961-1.543 4.338-5.672 7.252-10.277 7.252s-8.734-2.914-10.277-7.252c-1.511-4.252-6.186-6.475-10.434-4.961-4.251 1.51-6.472 6.182-4.96 10.435 3.852 10.837 14.169 18.118 25.672 18.118s21.82-7.281 25.672-18.118c1.512-4.252-.709-8.924-4.962-10.435z"/><circle class="st" cx="280.511" cy="462.979" r="8.17"/><circle class="st" cx="280.511" cy="397.617" r="8.17"/></svg>