<svg xmlns="http://www.w3.org/2000/svg" viewBox="0 0 512 512" enable-background="new 0 0 512 512"><style type="text/css">.st{fill:#68a3ab;}</style><path class="st" d="M256 0c-106.836 0-193.753 86.918-193.753 193.753 0 42.044 13.232 82.028 38.276 115.64l148.932 199.327c1.543 2.064 3.969 3.28 6.545 3.28s5.002-1.216 6.545-3.28l148.939-199.336c25.036-33.602 38.269-73.587 38.269-115.631 0-106.835-86.917-193.753-193.753-193.753zm142.387 299.613l-142.387 190.567-142.381-190.559c-22.918-30.76-35.032-67.368-35.032-105.869.001-97.824 79.587-177.412 177.413-177.412s177.412 79.588 177.412 177.412c0 38.501-12.113 75.109-35.025 105.861zm-147.834-208.797c-4.512 0-8.17 3.658-8.17 8.17v44.119h-16.34v-44.119c0-4.512-3.658-8.17-8.17-8.17-4.512 0-8.17 3.658-8.17 8.17v44.119h-16.34v-44.119c0-4.512-3.658-8.17-8.17-8.17-4.512 0-8.17 3.658-8.17 8.17v65.362c0 19.728 14.057 36.233 32.681 40.029v84.148c0 4.512 3.658 8.17 8.17 8.17 4.512 0 8.17-3.658 8.17-8.17v-84.148c18.624-3.795 32.681-20.3 32.681-40.029v-65.362c-.002-4.512-3.66-8.17-8.172-8.17zm-8.17 73.532c0 13.516-10.995 24.511-24.511 24.511s-24.511-10.995-24.511-24.511v-4.902h49.021v4.902zm62.638-73.532c-16.519 0-29.957 13.438-29.957 29.957v83.881c0 16.519 13.438 29.957 29.957 29.957h13.617v53.914c0 4.512 3.658 8.17 8.17 8.17s8.17-3.658 8.17-8.17v-167.752c.001-16.519-13.438-29.957-29.957-29.957zm13.617 127.455h-13.617c-7.509 0-13.617-6.108-13.617-13.617v-83.881c0-7.509 6.108-13.617 13.617-13.617s13.617 6.108 13.617 13.617v97.498zm-62.638-185.199c-88.6 0-160.681 72.081-160.681 160.681 0 36.569 12.625 72.364 35.549 100.791 2.833 3.513 7.976 4.064 11.488 1.231 3.512-2.833 4.063-7.976 1.231-11.488-20.889-25.902-31.929-57.208-31.929-90.534 0-79.59 64.751-144.34 144.34-144.34s144.34 64.751 144.34 144.34-64.751 144.34-144.34 144.34c-33.327 0-64.632-11.041-90.533-31.929-3.512-2.833-8.656-2.282-11.488 1.231-2.833 3.512-2.282 8.656 1.231 11.488 28.426 22.924 64.221 35.55 100.79 35.55 88.6 0 160.681-72.081 160.681-160.681s-72.079-160.68-160.679-160.68z"/></svg>