<?xml version="1.0" encoding="utf-8"?>
<!-- Generator: Adobe Illustrator 23.0.3, SVG Export Plug-In . SVG Version: 6.00 Build 0)  -->
<svg version="1.1" id="_x31_" xmlns="http://www.w3.org/2000/svg" xmlns:xlink="http://www.w3.org/1999/xlink" x="0px" y="0px"
	 viewBox="0 0 154.5 93.5" style="enable-background:new 0 0 154.5 93.5;" xml:space="preserve">
<style type="text/css">
	.st0{fill:#E01C17;}
	.st1{fill:#FFFFFF;}
	.st2{fill:#FBFCFC;}
</style>
<g>
	<path class="st0" d="M136.7,61C136.4,28.3,110,1.7,77.8,1.7S19.2,28.3,18.9,61l-1.7,0C17.6,27.4,44.7,0,77.8,0s60.3,27.4,60.6,61
		L136.7,61z"/>
	<path class="st1" d="M89.8,26.9c-0.3,0.1-0.5,0.5-0.9,0.5v-0.1c-0.1,0-0.6-0.1-0.6-0.3C88.8,26.6,89.3,26.8,89.8,26.9L89.8,26.9
		L89.8,26.9z M90.8,23.5c-0.1,0.3,0.1,0.9,0.5,1c0.3-0.1,0.7-0.1,0.7-0.6c-0.1-0.1,0-0.1-0.1-0.3c0.3,0.1,0.5,0.6,0.6,0.9
		c-0.5,0-0.9-0.3-1.1,0.1c-0.3,0.1,0,0.5-0.3,0.8c-0.2-0.9-1.1,0.3-1.5-0.8c0.3-0.5,0.6-0.8,0.9-1.3h0.5
		C90.8,23.4,90.8,23.5,90.8,23.5z M34.3,24.4C34.3,24.3,34.3,24.3,34.3,24.4C34.3,24.3,34.3,24.3,34.3,24.4
		C34.3,24.3,34.3,24.3,34.3,24.4L34.3,24.4L34.3,24.4z M80.2,39.9v-5.7c0-0.6,0.6-0.5,0.9-0.6c2.2,0.3,2.8-0.6,4.5-1.7
		c3.8,1.3,8.1,0.9,11.1-1.7c1.5-0.5,3.2-0.8,4.6-0.5c0.8,0.1,1.7,1,2.3,1.8c0.9,0.6-0.7,1.3-0.1,2c0.1,0.5,0.6,0.8,0.8,0.6
		c-0.2-0.3-0.7-0.6-0.6-1c1.1-1.5,2.8,1.3,3.9,0.3c-1-0.5-1.8-0.6-2.8-1.3c-0.1-0.9-1-1.6-1.7-2.4c2.6,0.1,5.4,0.8,7.9,0.8
		c2.1-0.5,4.2,0.1,5.5,1.8c1.1,0.9,2.9,1.5,4.4,0.8c0.1-0.1,0.9-0.3,0.6-0.8c-0.6,0.3-1.1,0.8-1.7,0.8c-1.6-0.1-2.9-1.5-3.6-2.5
		c1.8,0.1,3.9,0.6,6,0.3c0.7-0.3,1.7-0.1,2.3-0.8c1.3,2.8,4.4-0.8,4.8,0c-0.3,0.6,0.2,0.8,0.6,1c0.7-0.5,0.7,0.6,1.6,0.5
		c0.3-0.9,1,0,1.3,0.5c0.2,0.3,0.9,0.3,1.1,0.3l0.5-0.6c0.5,0.1,0.5,0.6,0.9,0.6c0.2-0.3,0.2-0.8,0.2-1c0.5,0.3,1,0.3,1.3,0.9
		c0.3,0.3,0.6,0,0.7-0.3c0.7-0.8,1.8,0,2.2-0.9c0.1-0.8-0.6-0.5-0.8-0.8c1.6-0.5,3.4-0.1,4.9,0.5c1.1-0.3,1.5,1.3,2.4,0.8
		c0.6,0.1,0.9-0.1,0.9,0.5c0.6,0.1,0.7-0.5,1.1-0.5c0,0.1,0,0.6,0.1,0.8c0.9,0.3,0.6-0.8,1.3-0.8c0,0.1,0.1,0.1,0.1,0.5
		c0.6,0.9,1.1-0.6,1.7-0.6c-0.1,0.9,0.7,0.5,1.1,0.6c0.3-0.1,0.6-0.3,0.6-0.8l0.5,0.3c0.3-0.1,0.6-0.3,0.6-0.6
		c-0.2-0.3-0.6-0.8-0.9-0.5c-0.2-0.1-0.2-0.5-0.5-0.5c-1-0.3-1.1,0.8-1.7-0.5c-0.5-0.3-1.5,1-1.3-0.5c-0.3,0-0.6,0-0.7,0.3
		c-0.6-0.1-1.3-0.5-1.7,0c-0.1-0.1-0.6-0.1-0.7-0.1s-0.2,0.1-0.2,0.5c-0.7-0.5-1.5,0.9-2.2,0.3c-1.5-0.1-2.8-0.8-4.1-0.8
		c0.3-0.1,0.5-0.6,0.7-0.9c0.3,0.5,0.9,0,1,0.5c0.5,0.3,0.6-0.1,0.7-0.5c0.2,0,0.8,0.3,0.7,0.5c-1.5,0,0.9,1.8,0.5-0.3
		c0.9-0.6,0.6,0.5,1.3,0.5c0.1-0.3,0.2-0.3,0.2-0.6c0.1,0.1,0.3,0.5,0.5,0.5c0.5-0.5,0.6,0.3,1,0.3c0.2-0.1,0.2-0.8,0.7-1
		c0.1,0.3,0.5,0.8,0.9,0.5c0.7-0.5-0.1-1,0.5-1.6c0-0.3-0.5-0.5-0.7-0.3c-0.2,0.1-0.6,0.5-0.6,0.8c-0.6-0.1-0.5-1.3-1.3-0.6
		c-0.1-0.3-0.7-0.1-0.6-0.6c-0.1-0.1-0.5-0.1-0.7-0.1l-0.1-0.1c-0.3-0.1-0.7,0-0.9,0.3l-0.1-0.1c-0.1-0.3-0.5,0-0.6-0.1v-0.3
		c0-0.3-0.3-0.5-0.6-0.5c-0.5,0.1-0.5,0.6-0.5,0.9c0.1,0.3,0.5,0.5,0.6,0.3c-0.3,1.5-0.7-0.8-1.5,0.1c-0.5,0.3,0,0.6-0.1,0.9
		l-0.5-0.1c-0.5,0-0.5,0.5-0.5,0.8c-1.1,0.9-2.2,2-3.4,2c0-0.1-0.1-0.3,0-0.5c0.5-0.1,0.9-0.5,0.5-0.8H137c-0.1,0.1-0.2,0.5-0.2,0.8
		c0-0.3-0.3-0.1-0.5-0.3c-0.3,0.6-0.7,0-1.1,0.3c-0.1,0-0.7,0.1-0.6-0.3c-0.2-0.1-0.7,0-1,0c-0.6-0.9-2.6-0.6-1.8-2
		c0.5-0.5,0.7-0.3,1.1-0.3c0.2,0.1,0.1,0.6,0.2,0.8c0.3,0.5,0.5,0.3,0.9,0.5c0.1-0.1,0.5-0.3,0.5-0.5l0.2,0.1c0-0.1,0.5,0,0.5-0.3
		c0.3,0,0.7-0.3,1,0.1c0.3,0.3,1-0.3,1.3,0.1c0.2,0.1,0.5-0.1,0.6-0.1c0.2-0.5-0.1-0.6-0.3-0.6c-0.9,0.5-1-0.9-1.6-0.9
		c-0.8,0.3-0.5-1-1.3-1c-0.5-0.1-0.6,0.1-0.9,0.5c-0.3-0.3-0.1-0.9-0.7-0.8c-0.5,0.6-0.9,0.1-1.5,0c-0.3,0.1-0.5,0.5-0.6,0.6
		l-0.9-0.8c0-0.5,0.1-0.6,0.1-1c0.5,0,0.3-0.3,0.5-0.5c0.5,0.6,0.9-0.3,1-0.5c0.2,0.3,0.7,0.1,0.9-0.1c0.1-0.3,0.9-0.8,0.2-1
		c-0.5-0.5-0.7,0.6-1,0c0.1-0.1,0.2-0.5,0.2-0.8c-0.2-0.1-0.5-0.3-0.7-0.1c-0.1,0.9-1,0.3-1.6,0.5c-0.5,0-0.5,0.6-0.7,0.3
		c-0.5-0.1-1,0-1.5,0.1c-0.2,0.1-0.1,0.8-0.1,0.9c-0.5-0.3-0.6-0.1-0.8,0.1c-0.1-0.1-0.3-0.5-0.5-0.6c-0.5-0.3-0.6,0.3-1,0.3
		c0,0.1,0,0.3-0.1,0.3c-0.3,0.3-0.9,0.1-0.7,0.9c0.3,0.9,0.7,0,1,0.6c-0.3,1-1.6,1-2.4,1.7l-0.1-0.6c0.3-0.3,0-0.6,0-0.8
		c-0.3-0.3-0.6-0.1-0.9,0c-0.6,1-0.9-0.5-1.5-0.5c-0.5,0.1-0.9-0.3-1.1,0c-0.1-0.1,0-0.5,0-0.6c0.3-0.3,0.6,0,0.9-0.3l0.1,0.1
		c0.6,0.3,0.6-0.3,0.9-0.6c0.1-0.1,0.6-0.1,0.7,0c1,0.3,0.3-0.3,1-0.3c0.3,0.3,0.6,0,0.7-0.3c0.5-1.4-1.1,0-1.3-0.9
		c-0.5-0.3-0.6,0.3-0.8,0.1c-0.3-0.5,0.1-0.8-0.1-1c-0.5-0.1-0.6,0.1-0.7,0.5c-0.3-0.1-0.1-0.6-0.6-0.6c-0.6,0.6-1.6-0.3-2.2,0.6
		c0.2-1.8-1.1,0-1.6-0.5c-0.5,0.1,0,0.9-0.6,0.8c-0.5,0.9-1.1-0.1-1.7,0.3c0-0.3,0-0.6-0.2-0.6c-0.5-0.1-0.7,0.1-0.6,0.6
		c-0.1,0.9,1,0,1,0.6c0.5,0,0.6,0.5,1,0.1c0.1,0.1,0.6,0,0.7,0.3l0.3-0.1c0.1,0.9-0.6,0-1,0.3c-0.1,0-0.1,0.1-0.2,0.1
		c-0.3,0.3-0.6,0.6-1,0.5c0-0.1-0.1-0.3-0.1-0.5h-0.9c-0.1,0.1-0.5,0.3-0.5,0.6l-0.3-0.5c0,0,0,0,0-0.1c0.1-0.3,0-0.8,0.6-0.8
		c0.1-0.3,0-0.5,0-0.9c-0.5,3.7-15.1,0.5-4,0.1c0,0,0,0.1,0,0.3c0.2,0.3,0.2,0.6,0.7,0.5c0.3-0.1,0.5-0.8,0.6-0.8
		c0.6,0,1.1,0.1,1.3-0.6c0-0.1-0.5-0.3-0.1-0.5c0,0,0.1,0,0.1,0.1c0.5,1,1.1-0.5,1.5,0.1c0.6,0.3,0.7-0.9,1-0.1c0.1,0,0.5,0.1,0.6,0
		c0.2-0.3,0.8-0.5,0.6-1c-0.5-0.3-1,0.3-1.5,0.3l-0.1-0.6c-0.7,0-1.3-1.3-1.7,0c-0.3-0.1,0-0.5-0.1-0.8c0-0.3-0.3-0.9-0.7-0.6
		c-0.6-0.5-1,0.9-1.8-0.5c-0.7,0.1-0.5,0.9,0,1c-0.7-0.6-2.1,0.8-2.6-0.1c-0.5,0.3-1.1,0.5-1.5,1c-0.2,0-0.6,0-0.6,0.3
		c-0.6-0.1-1.1-0.1-1.7-0.1c-0.7,1.3,1,0.8,1.1,1.7c0.2,0,0.5,0,0.7-0.1c0,0.1,0.1,0.3,0.3,0.5l-0.1,0.1c-0.1,0-0.5,0.3-0.6,0.1
		c-1.3,0.1-2.8,0-3.9,0.5c-0.1-0.5-1-0.1-0.7-0.8c1.5-1.3,0.6,0.1,1.5,0.3c0.5-0.3,0.5-0.6,0.5-0.9c0.3,0.3,1.1,1,1-0.1
		c-0.6,0,0.1-0.9-0.6-0.8c-1.5,0.3-1.3-1.3-3.3-1.5c-0.5,0.3-1.1,0.1-1.1,0.9c-0.6,0.3-1-0.3-1.6-0.1c-1.6-0.6-1.6,1.3-2.9,1.5
		c-0.3-0.1-0.3-0.6-0.5-0.9c-1.1-0.5-0.1,1-0.9,1.4c-0.1-0.3-0.7,0-0.6-0.5c0-0.3-0.1-0.6-0.5-0.8c0-0.3,0.3-0.6-0.1-0.9
		c0.5,0,0.9,0.3,1.1,0.3c0.6-0.8,1.8,0.8,1.8-0.8c0.1,0,0.7,0.9,1,0.1c0.3-0.5-0.3,0.1-0.1-0.3c-0.9-0.6-1,0-0.6-1.3
		c-0.1-0.3-0.3-0.1-0.7-0.1c-0.2,0.3,0,0.8,0,1c-1.3,1.4-0.1-0.8-1.1-1c-0.3-0.6-1.3,0.9-1-0.3c-0.5-1.7-1,1.4-0.9,0.6
		c-0.7,0.1-0.7-0.5-1.5-0.6c-0.6,0.8-1.6,0.5-2.4,0.6c-0.9,0-1.1,0.8-1.8,0.6l-0.1-0.9c-0.3,0-0.6,0-0.7,0.1c0.7,1.5,0,1-0.9,1.3
		c-0.5,0-1.7-2.1-1.6-0.6c0.6,0.3,0.5,1.3,1.1,1c-0.1,0.5-1.1,0.3-1.1-0.3c-0.6-0.3-0.9,0.6-1.1,0.3c0-0.8-0.7-0.9-0.9-1.7
		c-1-0.3-0.3,0.9-1.1,0.9l0.1-0.8c-0.5-1-1.1-0.1-1.3,0.3c-0.1-0.1-0.5-0.1-0.5-0.3c-0.9,0.6-2.1,0.8-2.9,0.3
		c0.3,0.9-0.6,0.9-0.7,1.6c0.1,0.5,0.3,0.8,0.9,0.8c0.3,0,0.3-0.5,0.3-0.6c0.2,0,0.7,0,0.9,0.3c0.5-0.1,1,0.6,1.3,0l0.9,0.8
		c-0.1,0.8-1.1,0.3-1.3,1.3c-0.5,0.6-0.8-0.3-1.6-0.1c0.1-0.3,1.1-0.3,0.9-0.9C75,20.3,74.9,20,74.4,20c-0.2,0-0.2,0.3-0.5,0.5
		c0,0-0.1,0-0.1-0.1c-0.1,0.1-0.5,0-0.6-0.1c-0.6,0.6-0.7-0.5-1.1-0.5c-0.5,0.1-0.9,0.1-1,0.6L70.8,20c-0.5,0-0.9,0.1-1,0.6
		c-0.5-0.1-0.7-0.5-1-0.8l0.5-0.5c0.6,1.4,1.6-0.3,2.2-0.1c-0.1-0.5,0.6-0.5,0.6-0.9l0.2,0.9c0.1-0.1,0.3,0,0.6-0.1
		c0-0.1,0-0.3,0-0.5c-0.5-0.9-1.8-0.1-2.2-1.3c0.1,0.1-2.4,1.8-1-0.5c-1-1.3-1.6,0.8-2.9,0.6c-0.3-0.1,0.1-0.1,0-0.5
		c-0.6-0.5-1.5-0.3-2.2-0.5c-0.5,0.6-1,0.8-1.6,0.6c-0.3,0-0.7-0.1-1,0.3l-0.3-0.1c-0.6,0-0.9,1.5-1.7,0.8c-1.6,0.3,0,1.3,0.6,1.4
		c0.2,0.5-0.5,0.1-0.6,0.5c0,0.5-0.6,0.6-0.3,1h-1c-0.7,0-1.1,0.8-1.7,0.1c-0.5-0.5-0.6,0.8-0.9-0.1c-0.5-0.5-0.7,0.3-1,0.1
		c0-0.1,0-0.1,0.1-0.3c0-0.3-0.1-0.6-0.5-0.9c-0.5,0-0.6,0.5-0.9,0.9c0-0.1-0.3-0.1-0.5-0.1c-0.1,0.3-0.5-0.1-0.7-0.1
		c-0.7-0.3-1.3,0.3-1.5,1c-0.1-0.3-0.5-0.6-0.6-0.6c-1.3-0.5-0.5,0.9-1,1.4c-0.2,0.1-0.5-0.1-0.6-0.3c-0.5-0.1-0.6,0.5-0.9,0.5
		c-0.1,0-0.1-0.1-0.1-0.3c-0.3,0-0.6-0.1-0.7,0.3c0,0-0.1,0.1-0.1,0.3c0,0.3,0.1,0.5,0.3,0.5c0.2,0.3,0.6-0.1,1-0.3
		c0.2,0.3,0.5,0.9,0.9,0.9c0.2-0.1,0.2-0.5,0.5-0.6l0.5,0.1c0.6-0.8,1,0.5,1.6,0.5c0.1,0,0.3-0.1,0.5-0.3c0.5,0.5,1.6,0.1,1.5,1
		c-0.6-0.3-1.3-0.6-2.1-0.5c-0.1,0.1-0.1,0.5-0.3,0.6l-1-0.3c-0.5,1-1-0.5-1.7,0.1c-0.7-0.3-1.3-1-1.7-1.8c-0.1-0.1-0.3-0.5-0.3-0.6
		h0.1c0.5,0.1,0.9-0.3,1-0.6l0.6,0.1c0.1-0.1,0.5-0.1,0.5-0.5c0.1,0,0.6-0.1,0.5-0.5c0-0.3-0.3-0.1-0.5-0.1c-0.1-0.6-0.8,0.3-1-0.3
		c-0.6,0.1-0.2-0.8-0.8-0.5c-0.6,0.8-1.6-0.5-2.3,0.5c-0.1-0.1-0.3-0.5-0.6-0.3c0.1,1-1.7,0.5-1.5,1.5c0.7,0.1,1.1,0.1,1.6-0.1
		l0.1,0.1c0.3,0.3,0.6,0.1,0.7,0c0.3,0.3,0.5,0.8,0.9,0.8c0.1,0.1,0.1,0.3,0.3,0.5c0.5,0.8,1.1,1.3,1.6,2l-0.1,0.5
		c-0.2,0-0.5-0.6-0.9-0.3c-0.1,0.3-0.2,0-0.6,0c0.1-0.1,0.3-0.3,0.3-0.5c-0.3-0.6-0.3-1.5-1.1-1.5c-0.1,0.1-0.3,0.1-0.5-0.1
		c-0.2-0.1-0.6-0.8-1-0.3C43.6,22,43.2,22,43.1,22c-0.3,0-0.3,0.3-0.3,0.5c-0.1-0.5-0.5-0.5-0.7-0.6c-0.9,0.3-0.5,1.4-1.3,0.8
		c-0.1,0-0.5-0.1-0.6-0.1c-0.2,0-0.5,0.1-0.6,0.1c-0.1,0.5-0.1,1-0.6,1.3c-0.2-0.1-0.6-0.6-1-0.5c-0.7,0.6,0.5,1,0,1.7
		c-0.1-0.1-0.1-0.3-0.5-0.3c-0.5,0.3-1,0-1.6,0.3c0,1-1,0.1-1.5,0.6c0,0.1-0.1,0.5,0,0.6H35c0.1,0.8,1.5,0.3,1.3,1.3
		c0.2,0,0.7,0.1,0.7-0.3c0.9-0.5,0.5,0.8,1.3,0.5c0.7-0.8,1.1,0.8,1.7,0.9c-1.8,0.1-4,0.3-5.4-1.3c-0.9-1-1.3-2.5-1-3.9
		c0.1,0,0.2,0.1,0.2,0.3c0.5-0.1,1.3,0,1.5-0.5l0.7,0.1c0.2-0.1,0.5-0.5,0.5-0.8c0.1-0.1,0.1-0.6,0.3-0.9c0-0.5-0.7-0.3-1-0.3
		c-0.3-0.5-0.9,0.6-1-0.1c-0.2,0-0.7-0.1-0.9,0.1c0-0.5-0.7-0.5-0.6-0.8c-0.8-0.5-0.8,0.6-1.5,1c-0.7,0.5-0.6-0.5-1.1-0.5
		c-0.2-0.1-0.5,0.6-0.6,0.5c-0.6,0.1-1.5-0.5-1.5,0.6c0,0.6,0.6,0.1,0.7,0.3c0.1,0.1,0.1,0.1,0.1,0.5c0.3,0.8,1.1,0.6,1.7,0.9
		c0.5,0,0.7-0.1,0.9-0.6c0.5,0.3,0.6,0,1,0.1c-0.3-0.1-0.3,0-0.5,0c-0.6,1.3,0.1,2.4,0.5,3.3c-0.6,0.1-1-0.3-1.5-0.1
		c-0.5,0-1.3,0.3-1.7-0.1c-0.2-0.3-0.6-0.1-0.9,0.1c-0.5-0.1-1-0.5-1.3-0.8v-0.1c0.5,0.8,1.3,0.1,1.8,0.5h0.6c0.8,0.1-0.1-1,0.8-0.9
		c0,0.1,0.1,0.5,0.5,0.3c0.2,0,0.6-0.1,0.5-0.6c0-0.6-0.9-0.3-0.9-0.1c-0.1-0.1,0-0.6-0.2-0.6c-0.3,0-0.5,0.3-0.6,0.6
		c-0.1-0.6-0.7-0.6-0.7-1c-0.2-0.3-0.7-0.1-0.9,0.1c-0.3,0.5-0.5-0.1-0.7-0.3c-1-0.3-1.6,0.6-2.4,0c-0.6-0.1-1,0.3-1.1,0.8
		c-0.6,0.6-1.5,0-1.7-0.5c-0.1-0.1-0.5,0-0.6,0.1c-0.1,0.1-0.3,0.5,0,0.8c0.5,0.6-0.7,0.8-0.3,1.4l0.9,0.1c0.3-0.1,0.3-0.5,0.5-0.8
		c0.1,0.6,0.5,0.9,1,0.9c0.2,0,0.7-0.1,0.6-0.6c0.7,0.9,2.1,0,2.6,0.9c-0.5,0-1-0.5-1,0.3c-0.6,0.1-0.7-0.8-1.5-0.5
		c0,0.5-0.3,0.9,0.3,1.3c0.1,0,0.5-0.1,0.6-0.1c0.1,0.5,0.5,0.6,0.7,0.6c-0.7,0.5-1.7,0.9-2.6,1.4c-0.9,0.3-1.8,0.5-2.9,0
		c-0.1,0-0.1,0-0.1-0.1c0.3-0.1,0.7-0.1,0.7-0.6c0.2,0.3,0.7-0.1,1,0.1c0.7-0.1,0.6-1.3,0.9-1.5c-0.1-0.5-0.6-0.6-0.9-0.6l-0.3,0.8
		c-0.2,0-0.2-0.6-0.7-0.8c-0.5-0.1-0.3,0.6-0.7,0.5c-0.5,0.1-0.7-0.1-0.6-0.6c-0.1-0.3-0.5-0.5-0.9-0.3c-0.1,0.5-0.7,0.5-0.7,0.9
		c-0.3,0-0.6,0-0.7-0.3c-0.6,0.5-0.6-0.6-1.3-0.5c-0.2,0.3-0.6-0.1-1,0.1c-0.3,0.6-0.7,0.9-0.6,1.5c-2.1-0.1-4.2-0.5-6,0.8l-1-0.8
		c-0.6,0.5-1.5-0.9-1.8,0.1c-1.3,0-1.3,1.3-2.2,0c0,0.5-0.7,1.3-1,0.6c-0.6-0.3-0.7,0.6-1.3,0c0.1,1-1,0.6-1.3,0.6
		c-0.7,1,0.7,1.4,1.5,1.4c0.5-0.1,0.3-1,0.6-0.6c0.5,0.3,0.7,0.8,1.3,1c0.2-0.1,0.6-0.3,0.6-0.6c0.2,0.9,1.1,0,1.5,0.8
		c0.6,0,2.1-0.6,2.3,0.5c0.2,0.1,0.5,0,0.7-0.3c-0.1-0.6,0.6-0.8,0.9-1c0.3,0.6,0.7-0.3,0.9,0.1c0.7,0.8,1.6,0.1,2.3,0.9
		c0.5-0.3,1-1,1.5-0.1c0.2-0.1,0.9-0.1,1-0.6c-0.1-0.3,0-0.9-0.2-1.4c0.5,0,0.7-0.1,1.1,0.1c1.1,0.9,2.8,2.3,4.5,1.6
		c2.1-0.9,4.4-1.3,6.3-2.3c1.1-0.3,2.1,0,2.9,0.5c1.3,0.6,2.6,1.7,4.4,1.3l-0.7,0.8c-1.6,1.3-3.9,0.9-5.6,1.3
		c1.6,0.6,3.9,0.3,5.5-0.3c1.3-1.5,2.6-2.4,4.1-2.9c3.4-1.3,7.7-0.8,11.2,0c1,0.1,2.1,0.3,3,0.5c0.5,0.3-0.1,0.6-0.2,0.9
		c-1.1,1.7-3.3,1-4.9,0.6c-0.5-0.1-1-0.3-1.5-0.3c0.7,0.6,1.6,0.8,2.3,1.3c-0.1,0.8-1.1,0.6-1.6,0.9c-1.1,0.5-1.8-0.6-2.9-0.6
		c2.2,2.1,4.6,0.1,6.9-0.1c1.3-0.1,2.2-1,3.4-1.4c1.1-0.9,2.6,0.1,3.9,0.3c3.2,1.4,6.3-0.3,9.5-0.6l0.9,0.8c2.4,2.4,6.5-0.3,6.5,1.7
		v6.7c0,1.4-1.6,1.6-2.1,1.8c-11.2,2.8-13.9,2.9-15.1,5.3c-0.5,1,1.1,2.1,0.1,2.9c-0.6,0.5-1.8,0.3-2.3-0.8c-0.5-0.9,0.7-1,0.7-1.5
		c-0.5,0.1-0.9,0.1-1.1,0.8c-0.6,0.9-0.2,1.4,0.1,1.7c1.1,1.3,2.8,1.5,3.9,0.1c0.7-0.9-0.5-2.1-0.1-2.5c1-1.8,3.3-2,5.5-2.2
		c-1.3,0.8-3.2,1.7-3.4,3c0,0.5,0.1,0.9,0.6,1.4c0.6,0.6,1.3,0.6,1.7,0.1c-0.6-0.3-1.7-0.6-1.3-1.7c0.6-1,1.6-1.4,2.4-1.8
		c2.1-0.9,3.9-1.3,5.7-1.5c0,0.5-0.3,0.6-0.5,0.9c-1.5,0.1-3,0.8-3.9,2.4c-0.3,0.5-0.1,1.4,0.3,1.7c0.7,0.6,1.6,0.8,2.2-0.1
		c0-0.5-0.7-0.1-1-0.3c-0.3,0-0.7-0.5-0.6-0.9c0.5-1.4,1.7-1.3,2.6-1.5c-0.3,2.9,2.2,2.1,3.2,2.9c0,1-0.9,0.9-1.3,1.4
		c0.5,0.3,0.7,0.5,1.3,0.5c0.6-0.8,1-1.4,0.9-2.6c-0.7-1.3-1.8-0.3-2.8-1.5c-0.1-0.3,0-0.8,0-1c1.5-0.3,2.8-0.8,4-1.5
		c0,0.6-0.1,1.3,0.1,1.6c1,0.8,2.4,0.3,2.8,1.7c-0.1,0.3,0,0.8-0.2,0.9c-0.5,0.6-1.3,0.1-1.6,0.6c0.5,0.6,1.3,1,1.7,0.8
		c0.3-0.3,0.7-0.6,0.9-1.3c0.3-0.3,0.3-1.3,0.1-1.5c-0.7-0.9-1.5-1-2.2-1.4c-0.7-0.3-0.5-0.9-0.5-1.7c0.6-1,1.3-1.4,2.1-1.8
		c-0.1,1.8,0.5,3.2,1.3,4.4c0.5,0.3,0.9,0.8,1.5,0.5c1-1,2.3-1.4,3.7-1.4c0.2,0.1,0.5,0.5,0.5,0.8c-0.7,1.8-2.6,0.5-3.6,2
		c0,0.5,0,1,0.3,1.4c0.7,0.8,2.1,0.5,2.6-0.1c-0.5-0.5-0.9,0.1-1.5,0c-0.3-0.3-0.6-0.5-0.6-0.9c0.8-0.6,1.8-0.3,3-0.6
		c0.6-0.5,0.7-1.3,1.1-1.8l0.6,0.8c0.9,1.4-0.7,1.8-1.1,2.6c0.5,0.5,0.9-0.1,1.3,0c0.6-0.6,1.5-1,1.3-2.2c-1-4.2-4.5-2.4-6.5-4.4
		c3.2,1.4,6.3-0.1,9.1,2.5c0.7,1.3-2.2,1.8-1,3.4c-0.3,0.3-1,0.1-1.1,0.8c0.6,0.1,1.1-0.1,1.7-0.3c0.5,0.5,1,0.5,1.6,0.5
		c0.6-0.3,1.3-0.8,1.3-1.5c-0.7,0.3-1.3,1.3-2.1,0.6c0.3-0.6,0.6-1.3,0.7-2c0.7-0.1,1.6-0.1,2.2-0.8c0.3-0.5,0.3-1.3,0.3-1.8
		c0.7,0.8,1.7,0.6,2.4,1.4c-0.7,0.5-1.5,0.6-2.1,1.4c-0.1,0.3-0.5,0.9-0.2,1.4c0.6,1,1.3,1.4,2.2,1.3c0.5-0.3,0.9-0.9,0.6-1.7
		c-0.1,1.3-1.8,1.7-2.1,0c0.6-1.5,1.7-1.4,2.6-2.1c1.3,0.6,2.8,0.5,3.8,1.7c0.5,1.5-1,1.3-1.5,1.8c1,0.3,1.8-0.5,2.6-0.9
		c0.1-0.5,0.1-1.3,0-1.8c-1.1-1.3-2.4-1.3-3.9-1.7c0.3-0.6,0-1.4-0.2-1.5c-2.8-1.3-6-1.8-8.8-1.8c-2.9,0-4.9,1.3-7.5-1.3
		C80.7,41.5,80.3,40.8,80.2,39.9L80.2,39.9L80.2,39.9z M89.3,49.9c-0.5-0.1,0.1-0.5,0.1-0.9h0.1C89.8,49.3,89.5,49.8,89.3,49.9
		L89.3,49.9L89.3,49.9z M96.7,45.6c0,0.1,0.3,0.3,0.3,0.6c-1.3-0.5-2.8-0.6-4-1.4C94.3,45.1,95.4,45.1,96.7,45.6L96.7,45.6
		L96.7,45.6z M92.6,46.6c-0.3,0.8-0.9,0.8-1.5,1c-0.5-1.7-1.7-2.4-2.8-2.8c1.1-0.6,2.2,0.3,3.4,0.3C92.1,45.6,92.6,46,92.6,46.6
		L92.6,46.6z M74.2,43.7c-0.9,0.6-0.7,1.3-2.4,1.5C72.5,44.8,72.5,44,74.2,43.7L74.2,43.7L74.2,43.7z M80.9,46.2
		c-1.6,0.8-2.9-1.3-2.3-2.8C79.2,44.6,79.8,46.1,80.9,46.2L80.9,46.2L80.9,46.2z M83.8,31.6c-0.9,0.6-2.4,0.6-3.3,0.3
		C81.4,31.2,82.7,31.6,83.8,31.6L83.8,31.6L83.8,31.6z M72.5,31.5c-1.3,0.6-3.4,0.8-4.8-0.5C69.4,31.1,71,30.9,72.5,31.5L72.5,31.5
		L72.5,31.5z M20.6,30.6c-1.1,0.5-2.6-0.1-3.4-0.9C18.3,29.7,19.6,30.1,20.6,30.6L20.6,30.6L20.6,30.6z M83,30
		c0.6,0,1.3,0.3,1.7-0.3c0.6,0,1,0.8,1.3,0l0.5,0.3l-0.6,0.5l-4-0.3C82,29.9,82.7,29.5,83,30L83,30L83,30z M20.2,29.5l-0.6-0.1
		l0.3-0.3C19.9,29.1,19.9,29.2,20.2,29.5L20.2,29.5L20.2,29.5z M14.1,29.2c-0.6,0-1.6,1.3-1.8,0c-0.6-0.3-1,0.5-1.1,0.1
		c-0.5-0.1-0.5,0.5-0.7,0.5l-0.1-0.6C11.5,28.8,12.8,28.8,14.1,29.2L14.1,29.2L14.1,29.2z M58,29l-0.2-0.1C57.9,29,58,28.8,58,29
		L58,29L58,29z M131.8,29.1c0,0.1-0.3,0.5-0.5,0.6l-0.5-0.9C131.2,28.8,131.5,29.2,131.8,29.1L131.8,29.1L131.8,29.1z M18.4,29h-0.3
		l0.1-0.1C18.3,29,18.3,29,18.4,29L18.4,29L18.4,29z M16.4,29c-0.5,0-0.7-0.1-0.9-0.3C15.8,28.8,16.3,28.5,16.4,29L16.4,29L16.4,29z
		 M59.6,28.5c0,0.3,0,0.6,0.5,0.6c-0.1,0.1,0,0.1,0,0.1l0.3-0.1l0.9,0.9c-0.7-0.1-1.6-0.1-2.3-0.5C59.3,29.2,59.1,28.3,59.6,28.5
		L59.6,28.5L59.6,28.5z M92.4,28.5c-0.3,0.1-0.6,0-0.7,0.5c-0.1,0.3,0,0.5,0.1,0.8c0,0,0.1,0,0.1-0.1c-0.5,2.3-3,0.9-4.4,1h-0.6
		l0.6-0.6c0.3,0.5,0.9,0.5,1.1,0.6c0.5-0.1,0.6-0.6,0.7-0.9h0.7c0,0.3,0.1,0.8,0.3,0.9c0.5,0,0.7,0,0.9-0.5v-0.9
		C91.1,28.7,92,28.2,92.4,28.5L92.4,28.5L92.4,28.5z M71.6,29c0,0.1,0.1,0.1,0.1,0.1c0.2-0.1,0.7,0,0.7-0.3v-0.3l2.8,2.1
		c-2.8-0.8-5.7-1.3-8.8-0.9l-1-1.3c0.6-0.1,0.5,1,1.1,0.5c0.5-0.9,1.6-0.1,2.3-0.6c0,0.3,0.1,0.6,0.5,0.9c0.5-0.1,1.1,0,1.3-0.6
		v-0.3C71,28.5,71.2,29,71.6,29L71.6,29L71.6,29z M46.3,28.2L46.3,28.2h0.5H46.3L46.3,28.2z M130.5,28.7c-0.5,0.8-1.1,0.1-1.7,0.3
		c-1.1,0.3-2.6,2.3-3.6,0.6c1.3-0.9,2.4-2.2,4.4-1.4L130.5,28.7L130.5,28.7z M77.2,29.7l-2.1-1.6c0.3,0.1,0.6,0.1,0.9,0.1
		c0.3-0.6,0.7,0,1,0L77.2,29.7L77.2,29.7z M35.1,29.1c-1.3,0.8-2.8,0-4-0.3c0.3-0.9,0.6,0.1,1.1-0.1c0.1-0.3,0.2-0.5,0.1-0.8
		C33.3,28.1,34.2,28.7,35.1,29.1L35.1,29.1L35.1,29.1z M124.2,27.8c0.1,0.3,0.9,0.3,0.5,0.8c-1.6,1-3.6,1.3-5.5,0.9
		c0.3-0.5,0.7-0.8,1.1-0.9c0,0.3,0.3,0.5,0.5,0.5c0.5-0.1,1-0.5,1.5-0.3c0.1,0.3,0.6,0.5,1,0.5c0.5-0.3,0-1,0.5-1.4
		C123.7,28.1,124,28.1,124.2,27.8L124.2,27.8L124.2,27.8z M82,27.8c-1,0.3-1.5,1.5-2.6,1.7c0-0.5-0.1-0.9,0-1.4
		c0.2,0.3,0.5,0.1,0.8,0.5c0.3-0.5,1-0.8,1.3-1C81.7,27.7,82,27.7,82,27.8L82,27.8L82,27.8z M101,27.3l-0.1,0.3l-0.1-0.1L101,27.3
		L101,27.3z M113.2,27.7C113.2,27.8,113.3,27.7,113.2,27.7c-0.5,1-1.5,1.6-2.8,1.5c-0.2-0.1-0.7,0-1-0.1c0.9-0.1,1.6-0.6,2.2-1.3
		c0.2,0.3,0.6,0.3,0.9,0.3c0.2-0.3,0.5-0.5,0.5-1C112.9,27.4,112.9,27.7,113.2,27.7L113.2,27.7L113.2,27.7z M51.1,29
		c-1.5,0-2.6-0.8-3.8-1.5c0.3-0.1,1,0.1,1.5-0.1C50,26.8,50.3,28.7,51.1,29L51.1,29L51.1,29z M65.4,29.9c-1.7,1-3.3-0.5-4.5-1.4
		c-0.1-0.1-0.1-0.1-0.1-0.3c0.6-0.5,1.3,0.6,1.5-0.5c0.1-0.3,0-0.5-0.1-0.8l2.2,1.3L65.4,29.9L65.4,29.9z M112.5,26.8
		c0,0.1,0,0.1,0,0.1h-0.1C112.2,26.8,112.5,26.8,112.5,26.8L112.5,26.8L112.5,26.8z M85.4,27.4l-0.7,0.1c0-0.3,0.1-0.5,0.3-0.8
		C85.4,26.8,85.3,27.3,85.4,27.4L85.4,27.4L85.4,27.4z M130.2,26.9v0.5l-0.7-0.3l0.1-0.3C129.9,27.3,130.1,26.6,130.2,26.9
		L130.2,26.9L130.2,26.9z M117.7,28.5c0.3,0,0.6-0.3,0.9-0.3c-0.1,0.8-1,0.8-1.3,1.3l-3.2-0.5c0.6-0.9,2.1-1,2.6-2l0.6-0.1
		C117.6,27.2,116.8,28.2,117.7,28.5L117.7,28.5L117.7,28.5z M97.6,26.7c-0.3,0.3-0.1,0.8,0.1,1c0.1,0.1,0.3,0.1,0.6,0l0.1-0.1V28
		c-0.6,0.3-1.5-0.6-1.8,0.3c0.1,0.3,0.2,0.5,0.7,0.5l-4.8,2c0.6-0.6,1.1-1.6,2.1-1.5c0.5-0.3,0.9,0.8,1.1-0.1c0-0.5-0.6-0.6-0.9-1
		c0.6,0,1.6,0.6,1.8-0.3c0-0.1,0.1-0.3-0.1-0.5C96.7,26.8,97.1,26.7,97.6,26.7L97.6,26.7L97.6,26.7z M60.2,26.7c0,0-0.1,0.3-0.3,0.1
		l-0.1-0.1C59.7,26.6,60.1,26.7,60.2,26.7L60.2,26.7L60.2,26.7z M134,26.6c0,0.1,0,0.1,0,0.3l-0.1-0.3H134L134,26.6z M118.7,26.8
		l-1-0.1C117.9,26.6,118.5,26.2,118.7,26.8L118.7,26.8L118.7,26.8z M61.8,26.7c-0.2,0.1-0.7,0.5-1,0.1
		C61.2,26.6,61.3,26.4,61.8,26.7L61.8,26.7L61.8,26.7z M41.8,27.2c0.3-0.1,0.9,0.3,1.3-0.1c0.2,0,0.5,1.3,1.1,0.8
		c0.1,0,0.3-0.5,0.6-0.3l1,0.8L41,28c-0.7-0.3-1.5-0.9-2.1-1.4c0.5-0.1,0.9,0.3,1.3-0.1c0.2,0,0.6,0,0.9-0.1
		C41.3,26.7,41.3,27.3,41.8,27.2L41.8,27.2L41.8,27.2z M53.4,27.2c-0.1,0.3-0.6,0.6-0.2,1c0.1,0.3,0.5,0.3,0.7,0.1l0.2-0.3
		c0.3,0.3,0,1,0.7,1l0.3-0.1c0,0.3,0,0.6,0.3,0.8c0.2,0,0.7,0,0.9-0.5c0.9,0.8,2.3,1.4,3.4,1.7c-2.3-0.3-4.6-1.3-7.2-1.7
		c-0.7-0.6-2.1-1.4-2.1-2.5c0.9,0.9,0.7-0.9,1.6-0.5C52.5,26.6,53,26.8,53.4,27.2L53.4,27.2L53.4,27.2z M122.6,26.6
		c-0.3,0-0.3-0.3-0.3-0.5C122.6,26.1,122.4,26.4,122.6,26.6L122.6,26.6L122.6,26.6z M119.9,26.1c0,0.1,0,0.1,0,0.1h-0.3
		C119.5,26.2,119.8,26.1,119.9,26.1L119.9,26.1L119.9,26.1z M109.4,26.9c0.1,0.3,0.6,0.3,0.9,0.5c-1.8,1.7-4.5,1.3-6.8,0.9
		c0.1-0.5,1-0.1,1.5-0.5c1.1-0.1,2.3-0.3,3.2-0.9c0.1,0.3,0.3,0.5,0.6,0.6C109.2,27.6,109.3,27.2,109.4,26.9c0.1-0.3-0.2-0.6,0-0.9
		C109.5,26.2,109,26.7,109.4,26.9L109.4,26.9L109.4,26.9z M115.5,26.4c-0.2,0.1-0.6,0.3-0.9,0.1c-0.2,0-0.1-0.3-0.1-0.6
		C114.6,26.2,115.4,26.6,115.5,26.4L115.5,26.4L115.5,26.4z M50.3,26.6c-0.1-0.3-0.3-0.3-0.1-0.6L50.3,26.6L50.3,26.6z M68.8,26.4
		c0.3,0,0.7-0.6,1,0l0.3-0.1c0,0.1,0,0.3,0.1,0.3c-0.5,0-0.7,0.3-1,0.5c0-0.8-1.3-0.3-1.5-1C68.2,25.9,68.5,26.6,68.8,26.4
		L68.8,26.4L68.8,26.4z M35.8,25.8L35.8,25.8L35.8,25.8L35.8,25.8z M100.5,26.2c0,0.3-0.6,0.6-0.7,0.9c-0.3-0.1-0.7-0.6-1-0.1
		l-0.1,0.1c0-0.3-0.1-0.6-0.5-0.6c0.1-0.5,0.6,0.3,0.9,0c0-0.8,0.7-0.5,1-0.8C100.2,25.8,100.5,25.9,100.5,26.2L100.5,26.2
		L100.5,26.2z M87.5,25.8h-0.5C87.2,25.8,87.5,25.7,87.5,25.8L87.5,25.8L87.5,25.8z M27.5,25.8l-0.2-0.1L27.5,25.8L27.5,25.8z
		 M86,25.8c-0.3,0.1-0.5-0.1-0.7-0.3C85.6,25.4,85.9,25.4,86,25.8L86,25.8L86,25.8z M55.4,25.8c-0.7,0.1-0.5,1.8-1.5,0.8l-0.3-0.3
		c0.6,0,0.1-0.6,0.6-0.8C54.7,25.4,55,25.8,55.4,25.8L55.4,25.8L55.4,25.8z M76.4,25.3c0,0.1,0,0.3,0,0.3H76
		C76.3,25.7,76.3,25.3,76.4,25.3L76.4,25.3L76.4,25.3z M94.2,25.2v-0.1h0.3v0.1H94.2L94.2,25.2z M75.3,25.4c0.1,0.1-0.1,0-0.3,0
		l0.1-0.3C75.2,25.3,75.2,25.4,75.3,25.4L75.3,25.4L75.3,25.4z M64.9,25c-0.1,0.5,0,0.9,0.5,1c0.3-0.1,0.7-0.1,0.7-0.6
		c-0.1,0,0-0.1-0.1-0.3c0.1,0.3,0.5,0.6,0.5,0.9c-0.3,0.1-0.7-0.3-1,0.1c-0.2,0.3,0,0.5-0.2,0.8c-0.3-0.9-1.1,0.3-1.5-0.8
		c0.1-0.5,0.6-0.8,0.9-1.3L64.9,25L64.9,25z M107.8,25.2c-0.5,0.1-0.7,0.3-1,0.6c-0.1,0.3,0,0.5,0.1,0.6h0.1c-0.5,0.1-1,0.5-1.6,0.3
		l1.8-1.8C107.6,25,107.7,25.2,107.8,25.2L107.8,25.2L107.8,25.2z M69.4,24.9v-0.1h0.3L69.4,24.9L69.4,24.9z M109.3,24.8
		c-0.1,0.3-0.7,0-0.9,0.6c-0.1,0-0.3,0-0.3-0.1c0.3,0,0.3-0.3,0.5-0.5v-0.2C108.9,24.5,109,24.8,109.3,24.8L109.3,24.8L109.3,24.8z
		 M43.7,24.9l-0.2-0.3l0.5-0.1C43.7,24.5,43.9,24.8,43.7,24.9L43.7,24.9L43.7,24.9z M95.4,25c-0.1-0.1-0.7-0.1-0.5-0.6
		C95.4,24.5,95.4,24.9,95.4,25L95.4,25L95.4,25z M112.8,24.5c0.6-0.5,0.5,0.8,1,0.5l0.2,0.7c-0.2,0.3-0.7-0.5-1,0
		c-0.6,0.3-0.7-0.6-1.1-0.8c-0.1,0-0.5,0.1-0.6,0.3v-0.3c0.5,0.1,0.6-0.3,0.7-0.5C112.3,24.4,112.5,24.9,112.8,24.5L112.8,24.5
		L112.8,24.5z M42,24.4c0.2,0.1,0,0.5-0.1,0.8L41.7,25C42,25,41.8,24.5,42,24.4L42,24.4L42,24.4z M40.1,24.8l-0.6-0.2l0.5-0.3
		C40.1,24.3,40.3,24.4,40.1,24.8L40.1,24.8L40.1,24.8z M105.1,24.9c0.3,0.1,0.7,0.3,0.9,0.1c-1.3,1.3-2.3,2.4-3.9,2.8
		c0.1-0.3,0-0.5-0.2-0.8h-0.7c0.5-0.5,0.9-0.9,1.3-1.4c0.1,0.1,0.5,0,0.6-0.1c0.1-0.3,0-0.6,0.5-0.8c0,0,0.1,0.5,0.5,0.6
		c0.3,0,0.6-0.3,0.6-0.6c0-0.3-0.5-0.9,0.1-0.9C104.7,24.1,105.4,24.1,105.1,24.9L105.1,24.9L105.1,24.9z M96.1,24.3L96.1,24.3
		L96,23.8h0.1V24.3L96.1,24.3z M129.4,24.3c-0.2,0.1-0.1,0.8,0.1,1c-0.1,0.1-0.9-0.3-1.1,0.1c-0.1-0.1-0.7-0.3-0.9-0.1
		c-0.5,0.3-0.1,0.8,0,1.3c0.3,0.9,0.9-0.3,1.1,0.5c-0.6,0.1-1.3,0.3-1.8,0.5c0.2-0.5,0-0.9,0.2-1.4c-0.1-0.3,0-0.9-0.5-0.8
		c-0.3,0.9-1.3,1-1.8,1.4h-0.1c0.6-0.1,0.2-0.8,0.6-1l1.3-1c0.1,0.1,0.5,0.3,0.6,0.1l0.6-0.6c0.1,0.3,0.3,0.8,0.6,0.8
		c0.2-0.1,0.6-0.1,0.6-0.5v-0.8C128.9,23.9,129.4,23.9,129.4,24.3L129.4,24.3L129.4,24.3z M80.4,23.8l-0.3,0.1l0.3-0.3
		C80.4,23.8,80.4,23.8,80.4,23.8L80.4,23.8L80.4,23.8z M101.4,23.6c0.1,0.1,0.5,0.3,0.7,0.3c-0.5,1-1.5,0-1.8,1
		c-0.7,0.1-1.5,0.1-2.1,0.5c-0.3-0.8-0.9,0-1.5-0.3l-0.3,0.3c0,0,0,0-0.1,0c0.1-0.8,0.3-0.8,0.9-1c0.1,0,0.1,0.3,0.5,0.3l0.2-0.6
		c0.1,0.3,0.3,0.1,0.6,0.1c0.3-0.1,0.5-0.6,0.7-0.1c0.6-0.1,1,0.1,1.3,0.1c0.3,0,0.5-0.3,0.6-0.5l-0.2-0.6
		C101,23.4,101.4,23.1,101.4,23.6L101.4,23.6L101.4,23.6z M127.9,23.5l0.3-0.3l0.1,0.1L127.9,23.5L127.9,23.5z M81.4,22.9v-0.1V22.9
		L81.4,22.9z M86.7,22.6L86.7,22.6V23h-0.1L86.7,22.6L86.7,22.6z M56,23.1c0.1-0.3,0.9,0.3,1-0.5l2.2,0.8v0.3l-0.7-0.5v0.3
		c-0.5-0.3-1,0.5-1.5,0c-0.2,0-0.6,0.1-0.7,0.5v0.3c-0.1-0.3-0.6-0.1-0.7-0.3l-0.5,0.3c-0.5-0.3-0.9-0.8-1.3-1.3
		c0.2,0,1.3,0.1,1.3-0.3c-0.1-0.3,0.1-0.6-0.1-0.8C55.3,22.6,55.6,23.1,56,23.1L56,23.1L56,23.1z M118.1,22.8
		c0.5,0.6-0.2,1.3,0.3,1.8c-0.5-0.1-0.6-0.6-0.9-0.9c0.3-0.1,0.6-0.6,0.3-0.9l-0.6-0.6C117.7,22.1,117.7,22.8,118.1,22.8L118.1,22.8
		L118.1,22.8z M102.5,22.1h0.7H102.5L102.5,22.1z M28,22.6c0.1,0.3-0.2,0.5-0.5,0.6c-0.3,0-0.3-0.1-0.6-0.5c0-0.3,0.3-0.6,0.6-0.6
		C27.8,22.1,27.8,22.5,28,22.6L28,22.6L28,22.6z M78.9,22.1c0,0.1,0.1,0.3,0.5,0.3c-0.1,0.1-0.1,0.1-0.1,0.3c0-0.3-0.2-0.3-0.6-0.5
		C78.7,22.1,78.8,22,78.9,22.1L78.9,22.1L78.9,22.1z M64,22.3c0,0-0.1,0.1-0.3,0.1C63.6,22.1,63.8,22,64,22.3L64,22.3L64,22.3z
		 M30.7,22.1L30.5,22L30.7,22.1L30.7,22.1L30.7,22.1z M68,22c0.1,0.5,0.6,0.3,0.8,0.5c-1.3,0.5-2.8,0.8-4.1,1.5
		c-0.7,0-1.3-0.5-1.6-1c0.5-0.1,0.7,0.9,1.3,0.6l0.5-0.3L64.7,23c0.7,0.3,0.7-0.9,1.3,0c0.5-0.1,1-0.1,1.1-0.6V22
		C67.4,22,67.7,22.3,68,22L68,22L68,22z M84.4,22c0,0-0.1,0.1-0.2,0.1v-0.5C84.3,21.7,84.4,22,84.4,22L84.4,22L84.4,22z M60.4,22.6
		c0.1-0.1,0.1-0.3,0.2-0.3c-0.1,0.8,1.5,0.8,0.7,1.5c-1.3-0.5-2.2-1.5-3.4-1.6l0.3-0.5C58.9,22.1,59.6,22.9,60.4,22.6L60.4,22.6
		L60.4,22.6z M89.9,21.7h-0.2C89.7,21.5,89.8,21.5,89.9,21.7L89.9,21.7L89.9,21.7z M97.3,21.4v0.3V21.4L97.3,21.4z M76.6,21.5
		c-0.1,0.1,0,0.3,0,0.5c-0.2,0-0.8-0.1-0.8-0.6C76,21.1,76.6,21.1,76.6,21.5L76.6,21.5L76.6,21.5z M73.1,21.2
		c-0.3,0.5,0,0.6,0.5,0.8c0.1-0.1,0.6,0.3,0.9,0v0.5c-0.6-0.1-1.1-0.3-1.6-0.8c0-0.3-0.1-0.6-0.2-0.8L73.1,21.2L73.1,21.2z
		 M98.8,21.5c-0.1,0.1-0.5,0.3-0.6,0.1c0.1-0.3,0-0.8-0.3-0.8l0.6-0.3C98.6,20.7,98.1,21.4,98.8,21.5L98.8,21.5L98.8,21.5z
		 M78.2,21.1c-0.6,0.3-0.1,0.8-0.1,1l0.1,0.3l-0.1,0.1c-0.6-0.6-0.7-1.5-0.7-2.4C77.6,20.3,78,21,78.2,21.1L78.2,21.1L78.2,21.1z
		 M96.3,20.3c-0.2,0.1-0.5,0.6-0.9,0.6c0-0.1,0-0.1,0-0.1c-0.1-0.1-0.5-0.1-0.6-0.5C95.3,20,95.9,20.2,96.3,20.3L96.3,20.3
		L96.3,20.3z M94.3,20.2c-0.3,0-0.6,0-0.7,0.1h-0.2c0-0.5,0.6,0,0.7-0.5L94.3,20.2L94.3,20.2z M101,20.2l-0.6-0.3v-0.5
		C100.5,19.7,100.9,19.8,101,20.2L101,20.2L101,20.2z M97.3,19.7l-0.5-0.3l0.5,0.1V19.7L97.3,19.7z M89.7,19.8c0,0,0.1,0,0.1,0.1
		c-0.5-0.3-0.9,0.8-1.1,0.5c-0.1-0.3-0.5-0.1-0.7-0.1c0.3-0.6,0.7-0.9,1.1-1.4C89.1,19.2,90,19.4,89.7,19.8L89.7,19.8L89.7,19.8z
		 M61.9,19.1c0.1,0.1,0.3,0.3,0.5,0.3l0.2-0.3c0.1,0,0,0.1,0.1,0.3c-0.5,0.1-0.6,0.6-1,0.8c-0.1-0.3-0.6-0.5-0.9-0.3l-0.1,0.3
		c0-0.3-0.2-0.5-0.5-0.8c0.5,0,0.1-0.8,0.6-0.9C61.2,18.9,62.2,18.2,61.9,19.1L61.9,19.1L61.9,19.1z M109.9,18.8h-0.2l0.2-0.3
		C110,18.4,109.9,18.7,109.9,18.8L109.9,18.8L109.9,18.8z M64,18.3c-0.3,0.3-0.1,0.6-0.1,0.9c0.2,0.3,1-0.3,1.3,0.3
		c0.5,0.1,0.2-0.8,0.9-0.5c0.5,0.5,1.5,0.8,1,1.5c0.2,0.1,0,0.5,0.1,0.5c-0.3,0-0.6-0.1-0.9,0c0-0.3-0.1-0.8-0.6-0.9
		C65.4,20,65.1,20,65,20.3l-0.3,0.2c0-1-1.3-0.3-1.6-1c0.5-0.3,0.6-0.6,0.6-1C63.6,18.4,63.8,18.3,64,18.3L64,18.3L64,18.3z
		 M84.2,18.4c0.2,0.3,0.6,0.9,1.1,0.6c0.1-0.1,0.3-0.1,0.3-0.5c0.1,0.3,0.5,1,1,0.6c0-0.3,0-0.5,0.1-0.6c0.2,0,0,0.5,0.2,0.8
		c-0.2,0.5-0.6,1-1,1.7c-0.1-0.1-0.3-0.5-0.7-0.5c0.3-0.1,1,0.1,1-0.5c0-1-1.3-0.5-1.8-0.8c-0.1,0-0.2,0.3-0.5,0.1
		c0-0.1-0.1-0.5-0.5-0.5c-0.5-0.1-0.9,0.8-0.9-0.1c-0.2,0-0.5,0.1-0.5,0.3v0.1c-0.6,0-1,0.1-1.5,0.3c-0.1,0-0.1-0.3-0.2-0.1
		c-0.1,0.1-0.1,0.6,0,0.8c0.5,0.3,1.1-0.1,1.6,0.5c-0.2,0.2-0.8,0.2-0.7,0.7c-0.3-0.3-0.7-0.5-1-0.5c0.2-0.5,0-1-0.6-1.3l-0.7,0.3
		c0-0.1-0.1-0.3-0.1-0.5c0.1,0,0.2-0.1,0.5-0.1v0.1c0.1-0.3,0.8-0.1,0.7-0.8c0,0.3,0.3,0.1,0.5,0c0,0.3,0.5,0.5,0.6,0.3l0.1-0.3
		c0.3,0.1,0.3,0.5,0.7,0.3c0.3-0.1,0.5-0.3,0.5-0.8l-0.3-0.1C82.9,17.8,83.3,18.9,84.2,18.4L84.2,18.4L84.2,18.4z M122.7,22.3
		c0.1,0.3,0.1,0.5,0.1,0.8c-0.1,0.3-0.5,0.1-0.6,0.1c-0.2-0.1-0.2-0.6-0.5-0.9H122.7L122.7,22.3z M0.1,29.7l0.1-0.1
		c0,0.1,0.1,0.1,0.1,0.1H0.1z"/>
	<g>
		<path class="st1" d="M139.4,74.3c-2.7-0.4-4.1-2-4.6-4.3c-0.4-2.3-0.7-4.8-0.6-7.1c0.2-2.5,1.3-3.1,3.8-3.4
			c4.1-0.4,8.3-0.9,12.4-1.4c1.2-0.2,2.4-0.7,3.7-1.1c-0.6,2.3-1.2,4.4-1.6,6.6c-0.7,3.1-1.3,6.3-1.8,9.5c-0.1,0.8,0.1,1.7,0.3,2.5
			c0.6,1.9,1.3,3.7,2,5.5c0.4,1,0.1,1.5-1,1.7c-2.5,0.6-4.4-0.5-5.1-3c-0.4-1.5-0.8-3-1.3-4.4c0-0.1-0.1-0.2-0.3-0.5
			c-4.3,3.8-8.8,7.2-15.1,7.7C132.4,78.6,135.5,76.1,139.4,74.3z M146.9,62.8c-2.3,0.7-4.3,1.4-5.9,3c-1,1-1.2,2.2-0.6,3.3
			c0.6,1,1.8,1.6,3,1.1c1-0.4,2.4-0.9,2.7-1.6C146.7,66.8,146.7,64.9,146.9,62.8z"/>
		<path class="st1" d="M115,74.1c0.6-1.3,1.3-2.5,1.9-3.8c1.3-3,2.9-5.8,5.1-8.3c2-2.2,4.4-3.6,7.3-3.8c-0.7,2.5-1.6,4.9-2.1,7.4
			c-0.8,3.8-0.9,7.7,0.1,11.4c0.4,1.4,1.2,2.7,1.7,4.1c0.7,1.7,0,2.5-1.8,2.2c-3.3-0.5-5.2-2.9-5.4-7.1c-0.1-1.1,0-2.3,0-3.8
			c-0.5,0.8-0.9,1.2-1.2,1.7c-2.1,3-4.5,5.7-7.8,7.4c-0.8,0.4-1.7,0.8-2.5,1c-0.8,0.2-2,0.3-2.4-0.1c-0.4-0.5-0.3-1.7-0.2-2.5
			c0.2-1.6,0.8-3.2,1-4.8c0.7-4.2-0.2-8.2-1.2-12.2c-0.2-0.8-0.4-1.7-0.6-2.5c-0.2-1.2,0.2-1.7,1.4-1.6c2,0.1,4.4,1.8,4.8,3.8
			c0.6,3.2,0.9,6.5,1.4,9.8c0.1,0.5,0.1,1,0.1,1.6C114.8,74.1,114.9,74.1,115,74.1z"/>
		<path class="st1" d="M23.1,82.9c2.4-4.9,2.2-9.9,1.5-15c-0.4,0.2-0.7,0.3-1,0.5c-2,1-3.1,0.5-3.4-1.7c-0.5-3.7,1-5.6,4.8-5.8
			c3.4-0.2,6.8-0.4,10.1-0.8c1.6-0.2,3.1-1,4.6-1.5c0.4-0.1,1.1-0.2,1.4,0.1c0.2,0.2,0.2,0.9,0.1,1.3c-0.8,1.8-1.7,3.6-2.6,5.4
			c-0.6,1.2-1.4,2.3-2.2,3.6c0.3-0.1,0.5-0.1,0.6-0.1c2.4-0.5,3.1,0.3,2.7,2.7c-0.3,1.7-0.5,3.4-0.4,5.1c0.3,3.5-1.4,5.1-4.3,5.4
			C31.3,82.5,27.3,82.6,23.1,82.9z M36.2,74.4c-0.1-0.1-0.2-0.3-0.3-0.4c-1.3,0.7-2.6,1.3-3.9,2c-1.7,0.8-2,1.4-1.6,3.6
			C32.7,78.2,35,76.9,36.2,74.4z M30.7,70.3c1.9-2,3.1-4.2,3.6-6.9c-1.1,0.6-2.1,1.3-3.1,2c-0.2,0.2-0.4,0.6-0.4,0.9
			C30.7,67.6,30.7,68.9,30.7,70.3z"/>
		<path class="st1" d="M58.4,83.5c3.8-6.1,6.1-12.4,8.2-18.7c0.5-1.5,0.8-3,1.2-4.4c0.3-1.2,1-1.8,2.2-1.4c2,0.6,4.1,1.2,6.1,1.9
			c0.4,0.2,0.8,0.9,0.9,1.4c0.6,2.5,1,5,1.6,7.7c2.6-0.8,4.4-2.5,6-4.6c0.9,3.3-0.3,5.9-3.5,7.4c-1.1,0.5-1.2,1-0.9,2.1
			c0.8,2.7,1.4,5.3,3.5,7.3c-0.1,0.2-0.1,0.3-0.1,0.3c-2.1-0.3-4.3-0.3-6.3-0.9c-0.7-0.2-1.3-1.6-1.6-2.5c-0.4-1.4-0.6-2.9-0.9-4.4
			c-1.8,0.5-3.5,0.9-5.1,1.4c-0.4,0.1-0.8,0.5-0.9,0.9c-1.2,3.1-3.3,5-6.6,5.6C61,82.5,59.9,83,58.4,83.5z M70.3,72.7
			c1.5-0.4,2.6-0.8,3.8-1.1c-0.4-2.3-0.7-4.3-1.1-6.7C72.1,67.5,71.2,69.9,70.3,72.7z"/>
		<path class="st1" d="M0.3,83.2C4,76.2,3,69.1,1.6,62c-0.2-0.8-0.4-1.6-0.4-2.4c-0.1-1.4,0.6-1.8,1.9-1.4c0.6,0.2,1.3,0.5,1.9,0.8
			c3.1,1.7,6.2,1.8,9.4,0.4c1-0.4,2.1-0.8,3.2-1.1c0.9-0.3,1.8-0.2,2.1,0.7c0.2,0.5-0.1,1.4-0.6,1.9c-2.4,2.6-5.5,3.9-8.9,4.6
			c-0.9,0.2-1.9,0.3-3,0.5c0.2,1.7,0.4,3.4,0.6,5.6c2.9-1.5,5.5-2.9,8.2-4.2c0.7-0.4,1.3-1.5,2.4-0.8c0.7,0.4,0.7,2.8,0,3.6
			c-0.8,0.8-1.7,1.6-2.8,2.1c-1.8,0.9-3.7,1.8-5.6,2.4c-1.8,0.5-2.8,1.4-2.6,3.6c3.7-1.1,7.4-2.2,11.4-3.3c0.3,1.1,0.6,2.2,0.8,3.3
			c0,0.3-0.5,0.7-0.8,0.9c-3.9,1.9-8,3.1-12.3,3.6C4.4,82.9,2.5,83,0.3,83.2z"/>
		<path class="st1" d="M64.8,58.3c-1.5,5.9-3.7,11.3-8.1,15.5c-1.3,1.2-3.1,1.8-4.7,2.6c-0.7,0.3-1,0.6-1.1,1.3
			c-0.9,5.1,0,4.2-5.2,5.4C44.8,83.3,43.9,83,43,83c0.3-0.7,0.6-1.5,1-2.2c1.8-3.4,1.6-7.1,1-10.8c-0.1-0.5-0.9-1-1-1.5
			c-0.3-1.9-0.4-3.9-0.5-5.9c0-0.9,0.7-1.4,1.6-1.5c3.8-0.5,7.5-1.1,11.3-1.6C59.1,59.1,61.8,58.7,64.8,58.3z M58.3,63.8
			C56,64.5,54,65,52.1,65.5c-0.4,0.1-1,0.6-1,0.9c0,1.8,0.2,3.5,0.3,5.5C54.5,69.8,56.6,67.2,58.3,63.8z"/>
		<path class="st1" d="M101.1,66.8c2.2,0.3,2.4,0.6,2.2,3c-0.1,1.8-0.3,3.7-0.3,5.5c0,2.6-0.8,4.1-3.4,5c-3.2,1-6.4,1.8-9.7,2.6
			c-1.1,0.3-2.3,0.5-3.4,0.7c0-3.7,1-4.8,4.3-5.7c1.8-0.5,3.6-1.1,5.2-1.8c2.3-1,2.8-2.1,2.4-4.7c-1.9,0.5-3.8,1.1-5.7,1.6
			c-0.7,0.2-1.5-0.1-2.3-0.2c0.3-0.7,0.5-1.6,1-2.2c1.1-1.1,2.4-2,3.6-3.1c1.1-1,1.9-2.2,1.8-3.8c-2.5,0.6-4.9,1.1-7.3,1.7
			c-1.5,0.4-1.9,0.1-2.2-1.5c-0.1-0.6-0.2-1.1-0.4-1.7c-0.5-2.2,0.3-3.4,2.6-3.5c1.6-0.1,3.3,0,4.9,0.1c2.7,0.1,5.3-0.1,7.9-1.2
			c0.5-0.2,1.4-0.2,1.8,0.1c0.3,0.2,0.4,1.2,0.2,1.7C103.4,61.8,102.3,64.3,101.1,66.8z"/>
	</g>
	<g>
		<path class="st2" d="M1.6,91.3c-0.3-0.1-0.6-0.2-0.9-0.5c-0.2-0.3-0.4-0.6-0.4-1.1c0-0.3,0.1-0.6,0.2-0.9c0.1-0.3,0.4-0.5,0.6-0.6
			C1.5,88.1,1.8,88,2.1,88h2.4v5.4H3.5v-2H2.6l-1.2,2H0.3L1.6,91.3L1.6,91.3z M2.2,88.9c-0.3,0-0.5,0.1-0.6,0.2s-0.3,0.4-0.3,0.6
			s0.1,0.5,0.3,0.6c0.2,0.2,0.4,0.2,0.6,0.2h1.3v-1.7H2.2z"/>
		<path class="st2" d="M7.1,88.9v4.5H6.1V88h4.7v5.4H9.9v-4.5H7.1z"/>
		<path class="st2" d="M12.6,89.3c0.2-0.4,0.6-0.8,1-1c0.4-0.2,0.9-0.4,1.4-0.4s1,0.1,1.4,0.4s0.7,0.6,1,1c0.2,0.4,0.4,0.9,0.4,1.4
			c0,0.5-0.1,1-0.3,1.4c-0.2,0.4-0.6,0.8-1,1s-0.9,0.4-1.4,0.4c-0.5,0-1-0.1-1.4-0.4s-0.7-0.6-1-1c-0.2-0.4-0.3-0.9-0.3-1.4
			C12.2,90.2,12.4,89.7,12.6,89.3L12.6,89.3z M16.5,89.7c-0.1-0.3-0.4-0.5-0.6-0.7c-0.3-0.2-0.6-0.2-0.9-0.2S14.3,88.9,14,89
			c-0.3,0.2-0.5,0.4-0.6,0.7c-0.1,0.3-0.2,0.6-0.2,1s0.1,0.7,0.2,1c0.1,0.3,0.4,0.5,0.6,0.7c0.3,0.2,0.6,0.3,0.9,0.3
			c0.4,0,0.7-0.1,0.9-0.3c0.3-0.2,0.5-0.4,0.6-0.7s0.2-0.6,0.2-1S16.7,90,16.5,89.7L16.5,89.7z"/>
		<path class="st2" d="M20.1,91v2.3h-0.9V88h0.9v2.2h2.8V88h0.9v5.4h-0.9V91H20.1z"/>
		<path class="st2" d="M26.6,93.1c-0.4-0.2-0.7-0.6-1-1c-0.2-0.4-0.4-0.9-0.4-1.4c0-0.5,0.1-1,0.4-1.4c0.2-0.4,0.6-0.8,1-1
			c0.4-0.2,0.9-0.4,1.4-0.4c1,0,1.7,0.4,2.2,1.2l-0.8,0.4c-0.1-0.2-0.3-0.4-0.6-0.6c-0.3-0.1-0.5-0.2-0.8-0.2
			c-0.3,0-0.6,0.1-0.9,0.3c-0.3,0.2-0.5,0.4-0.6,0.7c-0.2,0.3-0.2,0.6-0.2,1c0,0.4,0.1,0.7,0.2,1c0.2,0.3,0.4,0.5,0.6,0.7
			c0.3,0.2,0.6,0.3,0.9,0.3c0.3,0,0.6-0.1,0.8-0.2c0.3-0.1,0.4-0.3,0.6-0.6l0.8,0.4c-0.5,0.8-1.2,1.2-2.2,1.2
			C27.5,93.5,27,93.4,26.6,93.1L26.6,93.1z"/>
		<path class="st2" d="M32.4,91.7v1.7h-0.9V88h0.9v2.6l2.1-2.6h1.2l-2.2,2.5l2.3,2.8h-1.2l-1.8-2.3L32.4,91.7z"/>
		<path class="st2" d="M37.9,92.4l-0.4,1h-1l2.1-5.4h1.2l2.1,5.4h-1l-0.4-1H37.9z M40.2,91.5l-1-2.7l-1,2.7H40.2z"/>
		<path class="st2" d="M44,91.3c-0.3-0.1-0.6-0.2-0.9-0.5c-0.2-0.3-0.4-0.6-0.4-1.1c0-0.3,0.1-0.6,0.2-0.9c0.1-0.3,0.4-0.5,0.6-0.6
			c0.3-0.1,0.6-0.2,0.9-0.2h2.4v5.4h-0.9v-2H45l-1.2,2h-1.1L44,91.3L44,91.3z M44.6,88.9c-0.3,0-0.5,0.1-0.6,0.2
			c-0.2,0.2-0.3,0.4-0.3,0.6s0.1,0.5,0.3,0.6c0.2,0.2,0.4,0.2,0.6,0.2h1.3v-1.7H44.6z"/>
		<path class="st0" d="M54.5,93.4c0,0-0.1-0.1-0.2-0.2c-0.1-0.1-0.2-0.2-0.3-0.3c-0.4,0.4-0.9,0.6-1.5,0.6c-0.5,0-0.9-0.1-1.2-0.4
			c-0.3-0.3-0.5-0.6-0.5-1.1c0-0.4,0.1-0.7,0.3-0.9s0.5-0.5,0.9-0.6c-0.3-0.5-0.4-0.8-0.4-1.2c0-0.2,0.1-0.4,0.2-0.6
			c0.1-0.2,0.3-0.3,0.5-0.5C52.5,88,52.8,88,53,88c0.4,0,0.7,0.1,0.9,0.3c0.3,0.2,0.4,0.5,0.4,0.8c0,0.3-0.1,0.5-0.2,0.6
			c-0.1,0.2-0.3,0.3-0.4,0.4c-0.1,0.1-0.2,0.1-0.3,0.2c-0.1,0.1-0.2,0.1-0.4,0.2c0.1,0.1,0.2,0.2,0.2,0.3c0.1,0.1,0.2,0.2,0.3,0.3
			c0.1,0.1,0.1,0.2,0.2,0.3s0.2,0.2,0.3,0.4c0.2-0.3,0.4-0.7,0.5-1.1l0.7,0.3c-0.2,0.5-0.5,1-0.7,1.3c0.4,0.4,0.7,0.7,1,1.1
			L54.5,93.4z M53.5,92.5c-0.1-0.1-0.2-0.3-0.4-0.4c-0.1-0.1-0.2-0.2-0.3-0.3c-0.1-0.1-0.2-0.3-0.3-0.4c-0.1-0.1-0.2-0.3-0.3-0.4
			c-0.2,0.1-0.3,0.3-0.4,0.4c-0.1,0.2-0.2,0.3-0.2,0.5c0,0.3,0.1,0.5,0.3,0.7c0.2,0.2,0.4,0.2,0.7,0.2
			C52.9,92.8,53.2,92.7,53.5,92.5L53.5,92.5z M52.7,90.1c0.3-0.1,0.5-0.3,0.7-0.4c0.2-0.1,0.2-0.3,0.2-0.5c0-0.2-0.1-0.3-0.2-0.4
			c-0.1-0.1-0.2-0.1-0.4-0.1c-0.2,0-0.3,0.1-0.5,0.2c-0.1,0.1-0.2,0.3-0.2,0.5C52.4,89.5,52.5,89.7,52.7,90.1L52.7,90.1z"/>
		<path class="st2" d="M63.1,88v0.8h-2.7v1.4h2.7v0.8h-2.7v1.5h2.7v0.8h-3.7V88H63.1z"/>
		<path class="st2" d="M67.2,88c0.3,0,0.6,0.1,0.8,0.2c0.2,0.1,0.4,0.3,0.5,0.5c0.1,0.2,0.2,0.4,0.2,0.7c0,0.3-0.1,0.6-0.3,0.8
			c-0.2,0.2-0.4,0.4-0.7,0.4c0.2,0,0.4,0.1,0.5,0.2c0.2,0.1,0.3,0.3,0.4,0.5c0.1,0.2,0.1,0.4,0.1,0.6c0,0.4-0.1,0.8-0.4,1
			c-0.3,0.3-0.7,0.4-1.1,0.4h-2.7V88H67.2z M67,90.2c0.2,0,0.4-0.1,0.6-0.2c0.1-0.1,0.2-0.3,0.2-0.5c0-0.2-0.1-0.4-0.2-0.5
			c-0.1-0.1-0.3-0.2-0.6-0.2h-1.5v1.4H67z M67.1,92.6c0.3,0,0.5-0.1,0.6-0.2c0.1-0.1,0.2-0.3,0.2-0.5c0-0.2-0.1-0.4-0.2-0.5
			c-0.1-0.1-0.3-0.2-0.6-0.2h-1.5v1.5H67.1z"/>
		<path class="st2" d="M72.7,88c0.4,0,0.7,0.1,0.9,0.2c0.3,0.2,0.5,0.4,0.6,0.6c0.1,0.3,0.2,0.5,0.2,0.8c0,0.3-0.1,0.6-0.2,0.8
			c-0.1,0.3-0.3,0.5-0.6,0.6c-0.3,0.1-0.6,0.2-0.9,0.2h-1.4v2h-0.9V88H72.7z M73.2,89.1c-0.2-0.2-0.4-0.2-0.6-0.2h-1.3v1.7h1.3
			c0.3,0,0.5-0.1,0.6-0.2c0.2-0.2,0.3-0.4,0.3-0.6C73.5,89.4,73.4,89.2,73.2,89.1z"/>
		<path class="st2" d="M75.9,89.3c0.2-0.4,0.6-0.8,1-1c0.4-0.2,0.9-0.4,1.4-0.4s1,0.1,1.4,0.4c0.4,0.2,0.7,0.6,1,1
			c0.2,0.4,0.4,0.9,0.4,1.4c0,0.5-0.1,1-0.3,1.4c-0.2,0.4-0.6,0.8-1,1s-0.9,0.4-1.4,0.4c-0.5,0-1-0.1-1.4-0.4s-0.7-0.6-1-1
			c-0.2-0.4-0.3-0.9-0.3-1.4C75.5,90.2,75.6,89.7,75.9,89.3L75.9,89.3z M79.8,89.7c-0.1-0.3-0.4-0.5-0.6-0.7
			c-0.3-0.2-0.6-0.2-0.9-0.2s-0.7,0.1-0.9,0.2c-0.3,0.2-0.5,0.4-0.6,0.7c-0.1,0.3-0.2,0.6-0.2,1s0.1,0.7,0.2,1
			c0.1,0.3,0.4,0.5,0.6,0.7c0.3,0.2,0.6,0.3,0.9,0.3c0.4,0,0.7-0.1,0.9-0.3c0.3-0.2,0.5-0.4,0.6-0.7c0.1-0.3,0.2-0.6,0.2-1
			S79.9,90,79.8,89.7L79.8,89.7z"/>
		<path class="st2" d="M83.4,88.9v4.5h-0.9V88h4.7v5.4h-0.9v-4.5H83.4z"/>
		<path class="st2" d="M92.4,88v0.8h-2.7v1.4h2.7v0.8h-2.7v1.5h2.7v0.8h-3.7V88H92.4z"/>
		<path class="st2" d="M94.9,92l2.7-3.9h1v5.4h-0.9v-4l-2.8,4h-0.9V88h0.9V92z M95.5,87.4c-0.2-0.1-0.5-0.3-0.6-0.5l0.5-0.4
			c0.3,0.3,0.6,0.5,0.9,0.5c0.2,0,0.4,0,0.5-0.1c0.2-0.1,0.3-0.2,0.4-0.4l0.5,0.4c-0.2,0.2-0.4,0.4-0.6,0.5
			c-0.2,0.1-0.5,0.2-0.8,0.2C96,87.6,95.7,87.5,95.5,87.4L95.5,87.4z"/>
		<path class="st2" d="M101.4,93.1c-0.4-0.2-0.7-0.6-1-1c-0.2-0.4-0.4-0.9-0.4-1.4c0-0.5,0.1-1,0.4-1.4c0.2-0.4,0.6-0.8,1-1
			c0.4-0.2,0.9-0.4,1.4-0.4c1,0,1.7,0.4,2.2,1.2l-0.8,0.4c-0.1-0.2-0.3-0.4-0.6-0.6c-0.3-0.1-0.5-0.2-0.8-0.2
			c-0.3,0-0.6,0.1-0.9,0.3c-0.3,0.2-0.5,0.4-0.6,0.7c-0.2,0.3-0.2,0.6-0.2,1c0,0.4,0.1,0.7,0.2,1c0.2,0.3,0.4,0.5,0.6,0.7
			c0.3,0.2,0.6,0.3,0.9,0.3c0.3,0,0.6-0.1,0.8-0.2c0.3-0.1,0.4-0.3,0.6-0.6l0.8,0.4c-0.5,0.8-1.2,1.2-2.2,1.2
			C102.3,93.5,101.8,93.4,101.4,93.1L101.4,93.1z"/>
		<path class="st2" d="M107.2,91.7v1.7h-0.9V88h0.9v2.6l2.1-2.6h1.2l-2.2,2.5l2.3,2.8h-1.2l-1.8-2.3L107.2,91.7z"/>
		<path class="st2" d="M112.6,92.4l-0.4,1h-1l2.1-5.4h1.2l2.1,5.4h-1l-0.4-1H112.6z M114.9,91.5l-1-2.7l-1,2.7H114.9z"/>
		<path class="st2" d="M118.8,91.3c-0.3-0.1-0.6-0.2-0.9-0.5c-0.2-0.3-0.4-0.6-0.4-1.1c0-0.3,0.1-0.6,0.2-0.9
			c0.1-0.3,0.4-0.5,0.6-0.6c0.3-0.1,0.6-0.2,0.9-0.2h2.4v5.4h-0.9v-2h-0.9l-1.2,2h-1.1L118.8,91.3L118.8,91.3z M119.4,88.9
			c-0.3,0-0.5,0.1-0.6,0.2s-0.3,0.4-0.3,0.6s0.1,0.5,0.3,0.6c0.2,0.2,0.4,0.2,0.6,0.2h1.3v-1.7H119.4z"/>
		<path class="st2" d="M126.8,91.7v1.7h-0.9V88h0.9v2.6l2.1-2.6h1.2l-2.2,2.5l2.3,2.8h-1.2l-1.8-2.3L126.8,91.7z"/>
		<path class="st2" d="M133.8,92.4c-0.2,0.4-0.4,0.6-0.6,0.8c-0.2,0.2-0.6,0.3-1,0.3c-0.1,0-0.2,0-0.3,0c-0.1,0-0.2-0.1-0.3-0.1
			l0.2-0.8c0.1,0.1,0.2,0.1,0.4,0.1c0.2,0,0.4,0,0.5-0.1c0.1-0.1,0.2-0.3,0.4-0.5l-2.2-4h1.1l1.6,3.1l1.3-3.1h1.1L133.8,92.4z"/>
		<path class="st2" d="M137.6,93.4h-1.1l2-2.7l-1.9-2.6h1.1l1.4,2l1.4-2h1.1l-1.9,2.6l2,2.8h-1.1l-1.5-2.1L137.6,93.4z"/>
		<path class="st2" d="M143.8,91v2.3h-0.9V88h0.9v2.2h2.8V88h0.9v5.4h-0.9V91H143.8z"/>
		<path class="st2" d="M150.2,91.3c-0.3-0.1-0.6-0.2-0.9-0.5c-0.2-0.3-0.4-0.6-0.4-1.1c0-0.3,0.1-0.6,0.2-0.9
			c0.1-0.3,0.4-0.5,0.6-0.6c0.3-0.1,0.6-0.2,0.9-0.2h2.4v5.4h-0.9v-2h-0.9l-1.2,2h-1.1L150.2,91.3L150.2,91.3z M150.8,88.9
			c-0.3,0-0.5,0.1-0.6,0.2s-0.3,0.4-0.3,0.6s0.1,0.5,0.3,0.6c0.2,0.2,0.4,0.2,0.6,0.2h1.3v-1.7H150.8z"/>
	</g>
</g>
</svg>
