<svg xmlns="http://www.w3.org/2000/svg" width="143" height="30" viewBox="0 0 173.167 37.631"><path fill="#fff" d="M96.674 24.646c3.5,0 6.193,-1.416 8.193,-3.61l0 -7.359 -8.943 0 0 4.193 4.166 0 0 1.444c-0.667,0.556 -2.055,1.111 -3.416,1.111 -3.027,0 -5.165,-2.333 -5.165,-5.36 0,-3.028 2.138,-5.36 5.165,-5.36 1.805,0 3.222,1.138 3.916,2.361l3.999 -2.083c-1.277,-2.306 -3.776,-4.5 -7.915,-4.5 -5.527,0 -10.026,3.694 -10.026,9.582 0,5.887 4.499,9.581 10.026,9.581zm-17.269 -18.9l5.204 0 0 5.206 -5.204 0 0 -5.206zm0 6.574l5.205 0 0 12.017 -5.205 0 0 -12.017zm34.552 5.113l2.368 -7.184 2.369 7.184 -4.737 0zm4.999 -11.578l-5.263 0 -7.236 18.42 5 0 1.053 -2.894 7.631 0 1.052 2.894 5 0 -7.237 -18.42zm16.974 8.473l-3.105 0 0 -4.263 3.105 0c1.394,0 2.342,0.711 2.342,2.132 0,1.421 -0.948,2.131 -2.342,2.131zm3.816 3.264c2.026,-0.816 3.526,-2.474 3.526,-5.527 0,-4.869 -3.815,-6.21 -7.553,-6.21l-7.762 0 0 18.42 4.868 0 0 -6 2.105 0 4.395 6 5.5 0 -5.079 -6.683zm5.026 -11.737l0 4.341 5.21 0 0 14.08 4.868 0 0 -14.08 5.185 0 0 -4.341 -15.263 0zm-74.906 14.605l-3.316 0 0 -3.843 3.316 0c1.474,0 2.447,0.474 2.447,1.922 0,1.447 -0.973,1.921 -2.447,1.921zm-3.29 -10.79l3 0c1.29,0 2.026,0.658 2.026,1.711 0,1.053 -0.736,1.711 -2.026,1.711l-3 -0.027 0 -3.395zm7.158 4.842c1.763,-0.631 2.737,-1.973 2.737,-3.999 0,-3.184 -2.421,-4.658 -6.447,-4.658l-8.316 0 0 18.421 8 0c3.5,0 7.5,-1.027 7.5,-5.211 0,-2.553 -1.5,-3.974 -3.474,-4.553zm14.488 21.789l0.628 0 0 -2.405c0,-0.775 0.506,-1.329 1.175,-1.329 0.668,0 1.083,0.464 1.083,1.255l0 2.479 0.621 0 0 -2.429c0,-0.832 0.529,-1.305 1.166,-1.305 0.685,0 1.093,0.456 1.093,1.272l0 2.462 0.627 0 0 -2.609c0,-1.044 -0.595,-1.696 -1.566,-1.696 -0.734,0 -1.182,0.375 -1.483,0.84 -0.229,-0.473 -0.669,-0.84 -1.354,-0.84 -0.709,0 -1.085,0.383 -1.362,0.799l0 -0.709 -0.628 0 0 4.215zm9.011 0.09c0.742,0 1.223,-0.343 1.516,-0.717l0 0.627 0.621 0 0 -2.576c0,-0.539 -0.148,-0.946 -0.441,-1.24 -0.302,-0.302 -0.766,-0.465 -1.362,-0.465 -0.62,0 -1.068,0.147 -1.533,0.359l0.188 0.514c0.391,-0.179 0.782,-0.302 1.28,-0.302 0.792,0 1.247,0.392 1.247,1.142l0 0.13c-0.374,-0.106 -0.75,-0.18 -1.287,-0.18 -1.069,0 -1.802,0.473 -1.802,1.379 0,0.881 0.782,1.329 1.573,1.329zm0.123 -0.505c-0.571,0 -1.061,-0.311 -1.061,-0.841 0,-0.521 0.448,-0.864 1.231,-0.864 0.514,0 0.922,0.09 1.232,0.179l0 0.392c0,0.669 -0.629,1.134 -1.402,1.134zm3.343 0.415l0.628 0 0 -1.68c0,-1.272 0.75,-1.932 1.671,-1.932l0.049 0 0 -0.677c-0.799,-0.032 -1.411,0.473 -1.72,1.174l0 -1.1 -0.628 0 0 4.215zm3.302 0l0.628 0 0 -1.1 0.856 -0.865 1.508 1.965 0.751 0 -1.826 -2.405 1.769 -1.81 -0.783 0 -2.275 2.372 0 -4.109 -0.628 0 0 5.952zm4.812 -1.851l3.342 0c0.008,-0.098 0.008,-0.163 0.008,-0.22 0,-1.239 -0.717,-2.234 -1.965,-2.234 -1.166,0 -2.021,0.978 -2.021,2.202 0,1.312 0.946,2.201 2.103,2.201 0.8,0 1.313,-0.318 1.737,-0.791l-0.391 -0.35c-0.343,0.359 -0.751,0.595 -1.33,0.595 -0.742,0 -1.394,-0.514 -1.483,-1.403zm0 -0.506c0.089,-0.815 0.644,-1.418 1.369,-1.418 0.832,0 1.272,0.652 1.345,1.418l-2.714 0zm5.863 2.431c0.301,0 0.537,-0.066 0.758,-0.18l0 -0.538c-0.221,0.106 -0.4,0.147 -0.612,0.147 -0.424,0 -0.709,-0.187 -0.709,-0.702l0 -2.462 1.337 0 0 -0.554 -1.337 0 0 -1.273 -0.628 0 0 1.273 -0.587 0 0 0.554 0.587 0 0 2.544c0,0.856 0.514,1.191 1.191,1.191zm1.899 -5.211l0.718 0 0 -0.693 -0.718 0 0 0.693zm0.041 5.137l0.628 0 0 -4.215 -0.628 0 0 4.215zm2.088 0l0.627 0 0 -2.414c0,-0.79 0.539,-1.32 1.265,-1.32 0.742,0 1.166,0.489 1.166,1.272l0 2.462 0.628 0 0 -2.618c0,-1.002 -0.596,-1.687 -1.615,-1.687 -0.726,0 -1.166,0.367 -1.444,0.823l0 -0.733 -0.627 0 0 4.215zm6.89 1.321c0.669,0 1.232,-0.187 1.607,-0.562 0.342,-0.343 0.538,-0.84 0.538,-1.493l0 -3.481 -0.628 0 0 0.758c-0.342,-0.457 -0.856,-0.848 -1.647,-0.848 -1.003,0 -1.982,0.758 -1.982,1.989 0,1.232 0.971,1.99 1.982,1.99 0.774,0 1.288,-0.4 1.655,-0.889l0 0.498c0,0.986 -0.603,1.5 -1.533,1.5 -0.603,0 -1.142,-0.187 -1.623,-0.538l-0.285 0.489c0.563,0.392 1.215,0.587 1.916,0.587zm-0.008 -2.201c-0.783,0 -1.46,-0.588 -1.46,-1.436 0,-0.88 0.661,-1.435 1.46,-1.435 0.8,0 1.549,0.563 1.549,1.427 0,0.865 -0.749,1.444 -1.549,1.444zm7.257 0.97c0.743,0 1.224,-0.343 1.518,-0.717l0 0.627 0.619 0 0 -2.576c0,-0.539 -0.146,-0.946 -0.441,-1.24 -0.301,-0.302 -0.766,-0.465 -1.361,-0.465 -0.62,0 -1.069,0.147 -1.533,0.359l0.188 0.514c0.391,-0.179 0.783,-0.302 1.28,-0.302 0.79,0 1.248,0.392 1.248,1.142l0 0.13c-0.376,-0.106 -0.751,-0.18 -1.289,-0.18 -1.068,0 -1.802,0.473 -1.802,1.379 0,0.881 0.782,1.329 1.573,1.329zm0.123 -0.505c-0.571,0 -1.06,-0.311 -1.06,-0.841 0,-0.521 0.448,-0.864 1.231,-0.864 0.514,0 0.922,0.09 1.231,0.179l0 0.392c0,0.669 -0.627,1.134 -1.402,1.134zm5.211 1.736c0.668,0 1.23,-0.187 1.606,-0.562 0.342,-0.343 0.538,-0.84 0.538,-1.493l0 -3.481 -0.628 0 0 0.758c-0.342,-0.457 -0.856,-0.848 -1.647,-0.848 -1.003,0 -1.981,0.758 -1.981,1.989 0,1.232 0.97,1.99 1.981,1.99 0.775,0 1.288,-0.4 1.656,-0.889l0 0.498c0,0.986 -0.604,1.5 -1.534,1.5 -0.603,0 -1.141,-0.187 -1.622,-0.538l-0.286 0.489c0.563,0.392 1.215,0.587 1.917,0.587zm-0.009 -2.201c-0.782,0 -1.459,-0.588 -1.459,-1.436 0,-0.88 0.66,-1.435 1.459,-1.435 0.799,0 1.55,0.563 1.55,1.427 0,0.865 -0.751,1.444 -1.55,1.444zm3.931 -0.971l3.343 0c0.008,-0.098 0.008,-0.163 0.008,-0.22 0,-1.239 -0.717,-2.234 -1.965,-2.234 -1.166,0 -2.022,0.978 -2.022,2.202 0,1.312 0.946,2.201 2.104,2.201 0.798,0 1.313,-0.318 1.736,-0.791l-0.391 -0.35c-0.343,0.359 -0.75,0.595 -1.329,0.595 -0.742,0 -1.394,-0.514 -1.484,-1.403zm0 -0.506c0.09,-0.815 0.644,-1.418 1.37,-1.418 0.832,0 1.272,0.652 1.345,1.418l-2.715 0zm4.452 2.357l0.628 0 0 -2.414c0,-0.79 0.538,-1.32 1.264,-1.32 0.742,0 1.166,0.489 1.166,1.272l0 2.462 0.628 0 0 -2.618c0,-1.002 -0.595,-1.687 -1.614,-1.687 -0.726,0 -1.166,0.367 -1.444,0.823l0 -0.733 -0.628 0 0 4.215zm6.924 0.098c0.79,0 1.295,-0.342 1.72,-0.815l-0.416 -0.383c-0.334,0.358 -0.733,0.635 -1.272,0.635 -0.881,0 -1.549,-0.725 -1.549,-1.638 0,-0.922 0.652,-1.648 1.508,-1.648 0.571,0 0.962,0.269 1.297,0.62l0.399 -0.424c-0.392,-0.416 -0.889,-0.75 -1.687,-0.75 -1.232,0 -2.161,1.011 -2.161,2.202 0,1.198 0.929,2.201 2.161,2.201zm3.408 1.232c0.636,0 1.043,-0.319 1.402,-1.191l1.77 -4.354 -0.669 0 -1.353 3.514 -1.533 -3.514 -0.694 0 1.916 4.199c-0.252,0.595 -0.488,0.791 -0.864,0.791 -0.269,0 -0.456,-0.049 -0.661,-0.155l-0.211 0.498c0.286,0.138 0.547,0.212 0.897,0.212z"/><polygon fill="#27802F" points="47.867,11.287 53.51,5.644 47.867,0 42.223,5.644 "/><path fill="#fff" d="M26.755 21.112l-8.779 -8.779 4.18 -4.18 9.199 0 4.18 4.18 -8.78 8.779zm7.735 -21.112l-15.469 0 -6.688 6.689 -6.689 -6.689 -5.644 5.643 6.689 6.69 5.351 5.35 14.715 14.716 20.067 -20.066 -12.332 -12.333z"/><path d="M169.406 5.241c0,-0.113 -0.03,-0.204 -0.09,-0.273 -0.061,-0.071 -0.146,-0.114 -0.256,-0.133 -0.055,-0.007 -0.22,-0.011 -0.495,-0.011l-0.53 0 0 0.853 0.503 0c0.325,0 0.528,-0.014 0.609,-0.041 0.081,-0.028 0.144,-0.075 0.191,-0.142 0.045,-0.068 0.068,-0.151 0.068,-0.253zm-0.834 0.972l-0.399 0 -0.138 0 0 1.404 -0.679 0 0 -3.362 1.429 0c0.359,0 0.62,0.03 0.783,0.091 0.162,0.06 0.292,0.167 0.39,0.323 0.098,0.154 0.147,0.33 0.147,0.528 0,0.253 -0.073,0.461 -0.222,0.625 -0.148,0.165 -0.37,0.269 -0.664,0.311l1.065 1.484 -0.718 0 -0.994 -1.404zm0.045 -4.748l-4.549 4.55 4.549 4.55 4.55 -4.55 -4.55 -4.55z" fill="#27802F"/></svg>