<?xml version="1.0" encoding="utf-8"?>
<!-- Generator: Adobe Illustrator 17.1.0, SVG Export Plug-In . SVG Version: 6.00 Build 0)  -->
<!DOCTYPE svg PUBLIC "-//W3C//DTD SVG 1.1//EN" "http://www.w3.org/Graphics/SVG/1.1/DTD/svg11.dtd">
<svg version="1.1" id="Layer_1" xmlns="http://www.w3.org/2000/svg" xmlns:xlink="http://www.w3.org/1999/xlink" x="0px" y="0px"
	 viewBox="0 0 283.5 22.7" enable-background="new 0 0 283.5 22.7" xml:space="preserve">
<g>
	<path fill="#FFFFFF" d="M4,14.3H2v-1.9h2.3l0.4-2.8h-2V7.7h2.3L5.6,3h2L6.9,7.7h2.3L10,3h2l-0.7,4.7h2v1.9H11l-0.4,2.8h2v1.9h-2.3
		L9.7,19h-2l0.7-4.7H6L5.3,19h-2L4,14.3z M6.7,9.6l-0.4,2.8h2.3L9,9.6H6.7z"/>
	<path fill="#FFFFFF" d="M30.5,6.7c-0.8-1.2-2.4-1.7-3.7-1.7c-3.3,0-5.6,2.6-5.6,5.9c0,3.5,2.1,5.9,5.4,5.9c1.7,0,3.1-0.7,3.9-1.9
		l2.3,1.6c-1.4,1.8-3.5,2.8-6.2,2.8c-5,0-8.6-3.5-8.6-8.5c0-5.1,3.8-8.4,8.7-8.4c2.1,0,4.6,0.8,5.8,2.5L30.5,6.7z"/>
	<path fill="#FFFFFF" d="M36.1,16.5h1.4c1.6-1.8,2.4-4.7,2.4-9.4V3h11.2v13.5h1.8v6.2h-2.6V19H38.6v3.7h-2.6V16.5z M48.3,16.5v-11
		h-5.6v1.9c0,4.8-1,7.6-2,9.1H48.3z"/>
	<path fill="#FFFFFF" d="M58,3h10.6v2.5h-7.8v4.1h7.4v2.4h-7.4v4.5H69V19H58V3z"/>
	<path fill="#FFFFFF" d="M73,19l0.3-2.5c0.3,0.1,0.6,0.2,1,0.2c2.2,0,3.2-2.1,3.2-9.1V3h11V19h-2.9V5.5h-5.4v2.5
		c0,7.8-1.5,11.3-5.3,11.3C74.3,19.2,73.5,19.1,73,19z"/>
	<path fill="#FFFFFF" d="M99.9,3h2.5l6.9,16.1h-3.3l-1.5-3.7h-7L96.1,19h-3.2L99.9,3z M103.6,12.9l-2.5-6.5l-2.5,6.5H103.6z"/>
	<path fill="#FFFFFF" d="M113.7,3h2.9v6.5h7.5V3h2.9V19h-2.9v-7.1h-7.5V19h-2.9V3z"/>
	<path fill="#FFFFFF" d="M141.1,2.6c5,0,8.7,3.2,8.7,8.4c0,5-3.7,8.5-8.7,8.5c-4.9,0-8.6-3.5-8.6-8.5C132.5,5.8,136.2,2.6,141.1,2.6
		z M141.1,16.9c3.3,0,5.5-2.5,5.5-5.9c0-3.3-2.2-5.9-5.5-5.9c-3.3,0-5.5,2.6-5.5,5.9C135.6,14.4,137.9,16.9,141.1,16.9z"/>
	<path fill="#ffd477" d="M160.4,3h2.5l6.9,16.1h-3.3l-1.5-3.7h-7l-1.5,3.7h-3.2L160.4,3z M164,12.9l-2.5-6.5l-2.5,6.5H164z"/>
	<path fill="#ffd477" d="M174.2,3h3.8l7.5,12h0V3h2.9V19h-3.6l-7.6-12.4h0V19h-2.9V3z"/>
	<path fill="#ffd477" d="M194.7,3h4.5l4.2,11.4h0.1L207.5,3h4.5V19h-2.8V6.1h0L204.2,19h-2l-4.8-12.9h0V19h-2.7V3z"/>
	<path fill="#ffd477" d="M218.3,3H229v2.5h-7.8v4.1h7.4v2.4h-7.4v4.5h8.2V19h-11V3z"/>
	<path fill="#ffd477" d="M235,3h5.7c4.2,0,8.9,2,8.9,8c0,5.6-4.7,8-8.9,8H235V3z M240.2,16.5c2.9,0,6.3-1.2,6.3-5.5
		c0-4.6-3.3-5.6-6.3-5.6h-2.4v11.1H240.2z"/>
	<path fill="#ffd477" d="M255.1,3h2.9V19h-2.9V3z"/>
	<path fill="#ffd477" d="M272.1,2.6c5,0,8.7,3.2,8.7,8.4c0,5-3.7,8.5-8.7,8.5c-4.9,0-8.6-3.5-8.6-8.5C263.5,5.8,267.2,2.6,272.1,2.6
		z M272.2,16.9c3.3,0,5.5-2.5,5.5-5.9c0-3.3-2.2-5.9-5.5-5.9c-3.3,0-5.5,2.6-5.5,5.9C266.7,14.4,268.9,16.9,272.2,16.9z"/>
</g>
</svg>
