<?xml version="1.0" encoding="utf-8"?>
<!-- Generator: Adobe Illustrator 19.1.1, SVG Export Plug-In . SVG Version: 6.00 Build 0)  -->
<svg version="1.1" id="Layer_1" xmlns="http://www.w3.org/2000/svg" xmlns:xlink="http://www.w3.org/1999/xlink" x="0px" y="0px"
	 viewBox="6 -6 512 512" style="enable-background:new 6 -6 512 512;" xml:space="preserve">
<style type="text/css">
	.st0{fill:none;stroke:#68A3AB;stroke-width:16;stroke-linecap:round;stroke-linejoin:round;stroke-miterlimit:10;}
	.st1{fill:none;stroke:#68A3AB;stroke-width:16;stroke-linejoin:round;stroke-miterlimit:10;}
	.st2{fill:none;stroke:#68A3AB;stroke-width:16;stroke-miterlimit:10;}
	.st3{fill:none;stroke:#68A3AB;stroke-width:16;stroke-linecap:round;stroke-miterlimit:10;}
	.st4{fill:#68A3AB;}
</style>
<g>
	<path class="st0" d="M359.3,35.7V14c0-6.6-5.4-12-12-12H180.7c-6.6,0-12,5.4-12,12v21.7H359.3z"/>
	<path class="st0" d="M168.7,451.8V476c0,6.6,5.4,12,12,12h166.7c6.6,0,12-5.4,11.9-12v-24.2H168.7z"/>
</g>
<path class="st0" d="M97.7,451.7H53.6c-17.6,0-31.9-14.3-31.9-31.9V67.6C21.7,50,36,35.7,53.6,35.7h416.3
	c17.5,0,31.9,14.3,31.9,31.9v352.3c0,17.5-14.3,31.9-31.9,31.9H137.7"/>
<path class="st1" d="M192.4,344.6c-0.6,20.8-17.7,37.6-38.7,37.6h-26.4c-21,0-38.1-16.8-38.7-37.7c-11-9.1-18.5-22.2-20.3-36.9
	c-0.3,2.3-0.4,4.6-0.4,6.9V346c0,31.3,25.6,56.9,56.9,56.9h31.5c31.3,0,56.9-25.6,56.9-56.9v-31.5c0-2.3-0.2-4.6-0.4-6.9
	C210.9,322.4,203.4,335.5,192.4,344.6z"/>
<path class="st1" d="M192.3,300.4c-1.2,20.3-18.1,36.4-38.6,36.4h-26.4c-20.6,0-37.5-16.2-38.6-36.5c-11.1-9.2-18.7-22.5-20.4-37.5
	c-0.2,2.1-0.4,4.2-0.4,6.4v31.5c0,31.3,25.6,56.9,56.9,56.9h31.5c31.3,0,56.9-25.6,56.9-56.9v-31.5c0-2.2-0.1-4.3-0.4-6.4
	C211.1,277.9,203.5,291.2,192.3,300.4z"/>
<path class="st1" d="M192.3,255c-1.2,20.3-18.1,36.4-38.6,36.4h-26.4c-20.6,0-37.5-16.2-38.6-36.5c-11.1-9.2-18.7-22.5-20.4-37.5
	c-0.2,2.1-0.4,4.2-0.4,6.4v31.5c0,31.3,25.6,56.9,56.9,56.9h31.5c31.3,0,56.9-25.6,56.9-56.9v-31.5c0-2.2-0.1-4.3-0.4-6.4
	C211.1,232.5,203.5,245.8,192.3,255z"/>
<path class="st1" d="M192.3,209.8c-1.2,20.3-18.1,36.4-38.6,36.4h-26.4c-20.6,0-37.5-16.2-38.6-36.5c-11.1-9.2-18.7-22.5-20.4-37.5
	c-0.2,2.1-0.4,4.2-0.4,6.4v31.5c0,31.3,25.6,56.9,56.9,56.9h31.5c31.3,0,56.9-25.6,56.9-56.9v-31.5c0-2.2-0.1-4.3-0.4-6.4
	C211.1,187.3,203.5,200.6,192.3,209.8z"/>
<g>
	<path class="st2" d="M156.3,223.1h-31.5c-31.3,0-56.9-25.6-56.9-56.9v-31.5c0-31.3,25.6-56.9,56.9-56.9h31.5
		c31.3,0,56.9,25.6,56.9,56.9v31.5C213.2,197.5,187.6,223.1,156.3,223.1z"/>
	<path class="st2" d="M153.7,202.4h-26.4c-21.3,0-38.7-17.4-38.7-38.7v-26.4c0-21.3,17.4-38.7,38.7-38.7h26.4
		c21.3,0,38.7,17.4,38.7,38.7v26.4C192.4,185,175,202.4,153.7,202.4z"/>
	<path class="st2" d="M134.2,174.2c-0.4-7.6,1.9-15.3,7.1-21.6c6.1-7.4,14.8-11.2,23.7-11.3"/>
	<path class="st3" d="M141.2,126.4c17.6,0,30.7,19.1,19.8,37.6c-1.4,2.4-3.5,4.5-5.9,5.9c-18.6,10.9-37.6-2.2-37.6-19.8"/>
</g>
<g>
	<path class="st2" d="M416.3,77.8h-31.5c-6.5,0-12.7,1.1-18.5,3.1c18.8,6.5,33.3,22.7,37.3,42.6h14.8c6.6,0,12,5.4,12,12v34.2
		c0,6.6-5.4,12-12,12h-15.9c-5.1,17.9-18.8,32.2-36.2,38.3c5.8,2,12,3.1,18.5,3.1h31.5c31.3,0,56.9-25.6,56.9-56.9v-31.5
		C473.2,103.4,447.6,77.8,416.3,77.8z"/>
	<path class="st2" d="M347.8,223.1h-31.5c-31.3,0-56.9-25.6-56.9-56.9v-31.5c0-31.3,25.6-56.9,56.9-56.9h31.5
		c31.3,0,56.9,25.6,56.9,56.9v31.5C404.7,197.5,379.1,223.1,347.8,223.1z"/>
	<path class="st2" d="M325.7,174.2c-0.4-7.6,1.9-15.3,7.1-21.6c6.1-7.4,14.8-11.2,23.7-11.3"/>
	<path class="st3" d="M349.9,181.7h-34.2c-6.6,0-12-5.4-12-12v-34.2c0-6.6,5.4-12,12-12h34.2c6.6,0,12,5.4,12,12v34.2
		C361.9,176.3,356.5,181.7,349.9,181.7z"/>
</g>
<g>
	<path class="st1" d="M394.6,257c-12.4,0-24,3.1-34.3,8.5l22.1,20c3.9-1,7.9-1.6,12.1-1.6c25.5,0,46.2,20.7,46.2,46.2
		c0,0-1.4,15.5,13.5,15.5c13.5-0.1,13.5-15.5,13.5-15.5C467.7,289.7,435,257,394.6,257z"/>
	<circle class="st4" cx="457.7" cy="310" r="5.4"/>
	<circle class="st4" cx="433.9" cy="277.2" r="5.4"/>
	<g>
		<path class="st0" d="M466.3,343.6c1.6,2.8,2.5,6,2.5,9.4c0,10-7.9,14.5-7.9,14.5s7.9,6.4,7.9,17c0,10.5-8.5,19-19,19h-19.9"/>
	</g>
</g>
<g>
	<g>
		<path class="st1" d="M312.5,286v-27.7c-33.8,6.4-59.3,36.1-59.3,71.8c0,0,0,15.5,12.7,15.5c14.9,0,14.1-15.5,14.1-15.5
			C280,309.4,293.7,291.8,312.5,286z"/>
		<path class="st1" d="M340.6,258.4v27.8c18.5,6.1,31.8,23.4,31.8,43.9c0,0-1.4,15.5,13.5,15.5c13.5-0.1,13.5-15.5,13.5-15.5
			C399.4,294.6,374.1,265,340.6,258.4z"/>
	</g>
	<circle class="st4" cx="287.6" cy="276.6" r="5.4"/>
	<circle class="st4" cx="263.2" cy="310" r="5.4"/>
	<circle class="st4" cx="389.4" cy="310" r="5.4"/>
	<circle class="st4" cx="365.5" cy="277.2" r="5.4"/>
	<g>
		<path class="st0" d="M326.3,403.5h-54.5c-10.5,0-19-8.4-19-19c0-10.7,7.9-17,7.9-17s-7.9-4.5-7.9-14.5c0-4.1,1.3-7.8,3.4-10.9"/>
		<path class="st0" d="M397.9,343.6c1.6,2.8,2.5,6,2.5,9.4c0,10-7.9,14.5-7.9,14.5s7.9,6.4,7.9,17c0,10.5-8.5,19-19,19h-19.9"/>
	</g>
	<path class="st2" d="M339.6,403.5h-26.1c-0.6,0-1-0.4-1-1V251.7c0-0.6,0.4-1,1-1h26.1c0.6,0,1,0.4,1,1v150.7
		C340.6,403,340.2,403.5,339.6,403.5z"/>
</g>
</svg>
