<?xml version="1.0" encoding="utf-8"?>
<!-- Generator: Adobe Illustrator 19.1.1, SVG Export Plug-In . SVG Version: 6.00 Build 0)  -->
<svg version="1.1" id="Layer_1" xmlns="http://www.w3.org/2000/svg" xmlns:xlink="http://www.w3.org/1999/xlink" x="0px" y="0px"
	 viewBox="6 -6 512 512" style="enable-background:new 6 -6 512 512;" xml:space="preserve">
<style type="text/css">
	.st0{fill:#68A3AB;}
	.st1{fill:none;stroke:#68A3AB;stroke-width:16;stroke-linecap:round;stroke-miterlimit:10;}
</style>
<g>
	<g>
		<path class="st0" d="M79.7,63.7c-4.5,0-8.2,3.7-8.2,8.2v51.7H55.2V71.9c0-4.5-3.7-8.2-8.2-8.2s-8.2,3.7-8.2,8.2v51.7H22.5V71.9
			c0-4.5-3.7-8.2-8.2-8.2s-8.1,3.7-8.1,8.2v81.7c0,12.9,6.2,25,16.3,32.7v201.5c0,13.5,11,24.5,24.5,24.5s24.5-11,24.5-24.5V186.2
			c10.2-7.7,16.3-19.8,16.3-32.7V71.9C87.9,67.4,84.2,63.7,79.7,63.7z M71.6,153.6c0,8.7-4.7,16.8-12.3,21.2
			c-2.5,1.5-4.1,4.2-4.1,7.1v205.9c0,4.5-3.7,8.2-8.2,8.2s-8.2-3.7-8.2-8.2V181.9c0-2.9-1.6-5.6-4.1-7.1
			c-7.6-4.4-12.3-12.5-12.3-21.2V140h49L71.6,153.6L71.6,153.6z"/>
	</g>
</g>
<g>
	<g>
		<path class="st0" d="M485.5,63.7c-18,0-32.7,14.7-32.7,32.7v128c0,18,14.7,32.7,32.7,32.7h16.3v130.7c0,4.5-3.7,8.2-8.2,8.2
			s-8.2-3.7-8.2-8.2V281.6c0-4.5-3.7-8.2-8.2-8.2s-8.2,3.7-8.2,8.2v106.2c0,13.5,11,24.5,24.5,24.5s24.5-11,24.5-24.5V96.4
			C518.2,78.4,503.5,63.7,485.5,63.7z M501.9,240.7h-16.3c-9,0-16.3-7.3-16.3-16.3v-128c0-9,7.3-16.3,16.3-16.3s16.3,7.3,16.3,16.3
			V240.7z"/>
	</g>
</g>
<g>
	<path class="st0" d="M262.2,116.2L262.2,116.2c-4.5,0-8.2-3.7-8.2-8.2V72.2c0-4.5,3.7-8.2,8.2-8.2l0,0c4.5,0,8.2,3.7,8.2,8.2V108
		C270.3,112.5,266.6,116.2,262.2,116.2z"/>
	<path class="st0" d="M262.2,412.3L262.2,412.3c-4.5,0-8.2-3.7-8.2-8.2v-35.9c0-4.5,3.7-8.2,8.2-8.2l0,0c4.5,0,8.2,3.7,8.2,8.2v35.9
		C270.3,408.6,266.6,412.3,262.2,412.3z"/>
	<path class="st0" d="M140.2,238.1L140.2,238.1c0,4.5-3.7,8.2-8.2,8.2H96.2c-4.5,0-8.2-3.7-8.2-8.2l0,0c0-4.5,3.7-8.2,8.2-8.2h35.9
		C136.5,230,140.2,233.7,140.2,238.1z"/>
	<path class="st0" d="M436.3,238.1L436.3,238.1c0,4.5-3.7,8.2-8.2,8.2h-35.9c-4.5,0-8.2-3.7-8.2-8.2l0,0c0-4.5,3.7-8.2,8.2-8.2h35.9
		C432.6,230,436.3,233.7,436.3,238.1z"/>
	<path class="st0" d="M175.9,151.9L175.9,151.9c-3.2,3.2-8.4,3.2-11.5,0L139,126.5c-3.2-3.2-3.2-8.4,0-11.5l0,0
		c3.2-3.2,8.4-3.2,11.5,0l25.4,25.4C179.1,143.6,179.1,148.7,175.9,151.9z"/>
	<path class="st0" d="M385.3,361.3L385.3,361.3c-3.2,3.2-8.4,3.2-11.5,0l-25.4-25.4c-3.2-3.2-3.2-8.4,0-11.5l0,0
		c3.2-3.2,8.4-3.2,11.5,0l25.4,25.4C388.5,352.9,388.5,358.1,385.3,361.3z"/>
	<path class="st0" d="M175.9,324.4L175.9,324.4c3.2,3.2,3.2,8.4,0,11.5l-25.4,25.4c-3.2,3.2-8.4,3.2-11.5,0l0,0
		c-3.2-3.2-3.2-8.4,0-11.5l25.4-25.4C167.6,321.2,172.7,321.2,175.9,324.4z"/>
	<path class="st0" d="M385.3,115L385.3,115c3.2,3.2,3.2,8.4,0,11.5l-25.4,25.4c-3.2,3.2-8.4,3.2-11.5,0l0,0c-3.2-3.2-3.2-8.4,0-11.5
		l25.4-25.4C376.9,111.8,382.1,111.8,385.3,115z"/>
</g>
<g>
	<path class="st0" d="M215.5,125.5L215.5,125.5c-4.1,1.7-8.9-0.3-10.6-4.4l-6.3-15.2c-1.7-4.1,0.3-8.9,4.4-10.6l0,0
		c4.1-1.7,8.9,0.3,10.6,4.4l6.3,15.2C221.6,119,219.6,123.8,215.5,125.5z"/>
	<path class="st0" d="M321.3,381L321.3,381c-4.1,1.7-8.9-0.3-10.6-4.4l-6.3-15.2c-1.7-4.1,0.3-8.9,4.4-10.6l0,0
		c4.1-1.7,8.9,0.3,10.6,4.4l6.3,15.2C327.4,374.5,325.4,379.3,321.3,381z"/>
	<path class="st0" d="M149.5,284.8L149.5,284.8c1.7,4.1-0.3,8.9-4.4,10.6l-15.2,6.3c-4.1,1.7-8.9-0.3-10.6-4.4l0,0
		c-1.7-4.1,0.3-8.9,4.4-10.6l15.2-6.3C143,278.7,147.8,280.7,149.5,284.8z"/>
	<path class="st0" d="M405,179L405,179c1.7,4.1-0.3,8.9-4.4,10.6l-15.2,6.3c-4.1,1.7-8.9-0.3-10.6-4.4l0,0
		c-1.7-4.1,0.3-8.9,4.4-10.6l15.2-6.3C398.5,172.9,403.3,174.9,405,179z"/>
	<path class="st0" d="M149.5,191.5L149.5,191.5c-1.7,4.1-6.5,6.1-10.7,4.4l-15.1-6.3c-4.1-1.7-6.1-6.5-4.4-10.7l0,0
		c1.7-4.1,6.5-6.1,10.7-4.4l15.1,6.3C149.2,182.5,151.2,187.3,149.5,191.5z"/>
	<path class="st0" d="M405,297.4L405,297.4c-1.7,4.1-6.5,6.1-10.7,4.4l-15.1-6.3c-4.1-1.7-6.1-6.5-4.4-10.7l0,0
		c1.7-4.1,6.5-6.1,10.7-4.4l15.1,6.3C404.7,288.4,406.7,293.2,405,297.4z"/>
	<path class="st0" d="M215.5,350.8L215.5,350.8c4.1,1.7,6.1,6.5,4.4,10.7l-6.3,15.1c-1.7,4.1-6.5,6.1-10.7,4.4l0,0
		c-4.1-1.7-6.1-6.5-4.4-10.7l6.3-15.1C206.5,351.1,211.3,349.1,215.5,350.8z"/>
	<path class="st0" d="M321.4,95.3L321.4,95.3c4.1,1.7,6.1,6.5,4.4,10.7l-6.3,15.1c-1.7,4.1-6.5,6.1-10.7,4.4l0,0
		c-4.1-1.7-6.1-6.5-4.4-10.7l6.3-15.1C312.4,95.6,317.2,93.6,321.4,95.3z"/>
</g>
<path class="st1" d="M180.7,297.1c-12.1-16.6-19.2-37-19.2-59.1c0-55.6,45.1-100.7,100.7-100.7S362.9,182.4,362.9,238
	s-45.1,100.7-100.7,100.7c-23,0-44.1-7.7-61.1-20.6"/>
</svg>
