<?xml version="1.0" encoding="utf-8"?>
<!-- Generator: Adobe Illustrator 19.1.1, SVG Export Plug-In . SVG Version: 6.00 Build 0)  -->
<svg version="1.1" id="Layer_1" xmlns="http://www.w3.org/2000/svg" xmlns:xlink="http://www.w3.org/1999/xlink" x="0px" y="0px"
	 viewBox="6 -6 512 512" style="enable-background:new 6 -6 512 512;" xml:space="preserve">
<style type="text/css">
	.st0{fill:none;stroke:#68A3AB;stroke-width:16;stroke-linecap:round;stroke-linejoin:round;stroke-miterlimit:10;}
	.st1{fill:none;stroke:#68A3AB;stroke-width:16;stroke-linejoin:round;stroke-miterlimit:10;}
	.st2{fill:#68A3AB;}
</style>
<g>
	<path class="st0" d="M40,185.5c-6.6,21.8-10.2,44.9-10.2,68.9c0,29.9,5.6,58.5,15.7,84.8h130.4c6.6,0,12,5.4,12,12v8.5
		c0,1.8-0.4,3.5-1.2,5.1h77.8c6.6,0,12,5.4,12,12v8.5c0,6.6-5.4,12-12,12h-45.9c1.3,1.9,2.1,4.3,2.1,6.8v8.5c0,1-0.1,2-0.4,2.9h31.1
		c6.6,0,12,5.4,12,12v8.5c0,6.6-5.4,12-12,12H130.7c38.3,26.8,84.9,42.5,135.2,42.5c62.6,0,119.4-24.3,161.7-64.1
		c14.9-3.6,29.3-9.6,42.4-17.7l-11.2-18.1C486,352.1,502,305.1,502,254.4C502,124,396.3,18.3,265.9,18.3c-39.6,0-76.9,9.8-109.7,27"
		/>
	<path class="st0" d="M119.7,371.7H61c4,7,8.4,13.9,13.2,20.4c0.2,0,0.4,0,0.6,0h45.9c-1.3-1.9-2.1-4.3-2.1-6.8v-8.5
		C118.5,375,118.9,373.3,119.7,371.7z"/>
</g>
<g>
	<g id="leg_1_">
		<path class="st1" d="M216.5,98.2c7.8-7.5,20.3-7.3,27.9,0.6c7.6,7.9,7.4,20.4-0.4,27.9l-1.5,1.4l1.5,1.6
			c7.5,7.8,7.3,20.3-0.6,27.9c-7.9,7.6-20.4,7.4-27.9-0.4l-9.5-9.8c0,0-15.3-0.3-21.5-0.4c-9.5,2.8-32.9,21.8-32.9,21.8
			c-23.7,22.9-61.6,22.2-84.4-1.6S45,105.6,68.8,82.8s61.6-22.2,84.4,1.6c0,0,22.8,19.8,32.2,22.9c6.8,0.1,21.5,0.3,21.5,0.3
			L216.5,98.2z"/>
		<circle class="st2" cx="179.7" cy="113.2" r="5.9"/>
		<circle class="st2" cx="129.8" cy="101.4" r="5.9"/>
	</g>
	<g id="leg_2_">
		<path class="st1" d="M122.8,279.1c-7.8,7.5-20.3,7.3-27.9-0.6s-7.4-20.4,0.4-27.9l1.5-1.4l-1.5-1.6c-7.5-7.8-7.3-20.3,0.6-27.9
			s20.4-7.4,27.9,0.4l9.5,9.8c0,0,15.3,0.3,21.5,0.4c9.5-2.8,32.9-21.8,32.9-21.8c23.7-22.9,61.6-22.2,84.4,1.6s22.2,61.6-1.6,84.4
			c-23.7,22.9-61.6,22.2-84.4-1.6c0,0-22.8-19.8-32.2-22.9c-6.8-0.1-21.5-0.3-21.5-0.3L122.8,279.1z"/>
		<circle class="st2" cx="159.6" cy="264.1" r="5.9"/>
		<circle class="st2" cx="209.5" cy="275.9" r="5.9"/>
	</g>
</g>
<g>
	<g>
		<path class="st0" d="M333.2,265.7c-4.5-2-8.9-4.3-13.3-6.8l72.9-127L470,256.4c-2.9,1.8-5.9,3.5-9,5.1"/>
		<circle class="st2" cx="411.2" cy="146.1" r="10.3"/>
		<circle class="st2" cx="464.5" cy="236.3" r="10.3"/>
		<circle class="st2" cx="444" cy="204" r="10.3"/>
		<path class="st2" d="M427.6,150.6l-10.5,1.8c-2.1,0.4-3.6,2.4-3.2,4.5l1.8,10.5c0.4,2.1,2.4,3.6,4.5,3.2l10.5-1.8
			c2.1-0.4,3.6-2.4,3.2-4.5l-1.8-10.5C431.8,151.6,429.7,150.2,427.6,150.6z"/>
		<path class="st2" d="M457.9,208.8l-10.5,1.8c-2.1,0.4-3.6,2.4-3.2,4.5l1.8,10.5c0.4,2.1,2.4,3.6,4.5,3.2L461,227
			c2.1-0.4,3.6-2.4,3.2-4.5l-1.8-10.5C462,209.9,460,208.4,457.9,208.8z"/>
		<path class="st2" d="M437.1,176.2l-8.4-8.4c-1.3-1.3-3.3-1.3-4.6,0l-8.4,8.4c-1.3,1.3-1.3,3.3,0,4.6l8.4,8.4
			c1.3,1.3,3.3,1.3,4.6,0l8.4-8.4C438.3,179.5,438.3,177.4,437.1,176.2z"/>
		
			<rect x="425.6" y="183.4" transform="matrix(-0.9832 -0.1823 0.1823 -0.9832 825.1896 458.8482)" class="st2" width="16.2" height="16.2"/>
	</g>
	<g>
		<path class="st0" d="M445.6,369.4l24.4,39.3c-44.3,27.4-101.8,30.2-150.1,2.5l25-43.5"/>
		<circle class="st2" cx="464.5" cy="388.5" r="10.3"/>
		<path class="st2" d="M457.9,361.1l-10.5,1.8c-2.1,0.4-3.6,2.4-3.2,4.5l1.8,10.5c0.4,2.1,2.4,3.6,4.5,3.2l10.5-1.8
			c2.1-0.4,3.6-2.4,3.2-4.5l-1.8-10.5C462,362.1,460,360.7,457.9,361.1z"/>
	</g>
	<g>
		<path class="st1" d="M470,329.7c-44.3,27.4-101.8,30.2-150.1,2.5l72.9-127L470,329.7z"/>
		<path class="st2" d="M437.3,304.4l-85,14.8c-2.1,0.4-3.6,2.4-3.2,4.5l0.8,4.8c0.4,2.1,2.4,3.6,4.5,3.2l85-14.8
			c2.1-0.4,3.6-2.4,3.2-4.5l-0.8-4.8C441.5,305.5,439.4,304,437.3,304.4z"/>
		<path class="st2" d="M425.7,285.8l-70.9,12.3c-2.1,0.4-3.6,2.4-3.2,4.5l0.8,4.5c0.4,2.1,2.4,3.6,4.5,3.2l70.9-12.3
			c2.1-0.4,3.6-2.4,3.2-4.5l-0.8-4.5C429.9,286.8,427.8,285.4,425.7,285.8z"/>
		<path class="st2" d="M414,266.1l-46.9,8.1c-2.1,0.4-3.6,2.4-3.2,4.5l1,5.8c0.4,2.1,2.4,3.6,4.5,3.2l46.9-8.1
			c2.1-0.4,3.6-2.4,3.2-4.5l-1-5.8C418.2,267.1,416.2,265.7,414,266.1z"/>
		<path class="st2" d="M402.9,249.7l-22.3,3.9c-2.1,0.4-3.6,2.4-3.2,4.5l0.6,3.4c0.4,2.1,2.4,3.6,4.5,3.2l22.3-3.9
			c2.1-0.4,3.6-2.4,3.2-4.5l-0.6-3.4C407,250.8,405,249.4,402.9,249.7z"/>
		<circle class="st2" cx="411.2" cy="219.3" r="10.3"/>
		<circle class="st2" cx="464.5" cy="309.5" r="10.3"/>
		<circle class="st2" cx="444" cy="277.3" r="10.3"/>
		<path class="st2" d="M427.6,223.8l-10.5,1.8c-2.1,0.4-3.6,2.4-3.2,4.5l1.8,10.5c0.4,2.1,2.4,3.6,4.5,3.2l10.5-1.8
			c2.1-0.4,3.6-2.4,3.2-4.5l-1.8-10.5C431.8,224.9,429.7,223.5,427.6,223.8z"/>
		<path class="st2" d="M457.9,282.1l-10.5,1.8c-2.1,0.4-3.6,2.4-3.2,4.5l1.8,10.5c0.4,2.1,2.4,3.6,4.5,3.2l10.5-1.8
			c2.1-0.4,3.6-2.4,3.2-4.5l-1.8-10.5C462,283.1,460,281.7,457.9,282.1z"/>
		<path class="st2" d="M437.1,249.4l-8.4-8.4c-1.3-1.3-3.3-1.3-4.6,0l-8.4,8.4c-1.3,1.3-1.3,3.3,0,4.6l8.4,8.4
			c1.3,1.3,3.3,1.3,4.6,0l8.4-8.4C438.3,252.8,438.3,250.7,437.1,249.4z"/>
		
			<rect x="425.6" y="256.6" transform="matrix(-0.9832 -0.1823 0.1823 -0.9832 811.8475 604.0089)" class="st2" width="16.2" height="16.2"/>
	</g>
</g>
<g>
	<path class="st1" d="M175.9,371.7h-134c-6.6,0-12-5.4-12-12v-8.5c0-6.6,5.4-12,12-12h134c6.6,0,12,5.4,12,12v8.5
		C187.9,366.3,182.5,371.7,175.9,371.7z"/>
	<path class="st1" d="M264.5,364.8h-77.8c-1.9,4.1-6.1,6.9-10.8,6.9h-56.2c-0.7,1.6-1.2,3.3-1.2,5.1v8.5c0,6.6,5.4,12,12,12h134
		c6.6,0,12-5.4,12-12v-8.5C276.5,370.2,271.1,364.8,264.5,364.8z"/>
	<path class="st1" d="M251.4,415.5h-31.1c-1.3,5.2-6,9.1-11.6,9.1H105.8c-0.2,0.9-0.4,1.9-0.4,2.9v8.5c0,6.6,5.4,12,12,12h134
		c6.6,0,12-5.4,12-12v-8.5C263.4,420.9,258,415.5,251.4,415.5z"/>
	<path class="st1" d="M130.5,397.3c-4.1,0-7.7-2.1-9.9-5.2H74.7c-6.6,0-12,5.4-12,12v8.5c0,6.6,5.4,12,12,12h134c6.6,0,12-5.4,12-12
		v-8.5c0-2.5-0.8-4.9-2.1-6.8H130.5z"/>
</g>
<g>
	<circle class="st2" cx="320" cy="83.7" r="13.8"/>
	<circle class="st2" cx="307.5" cy="116.1" r="10.3"/>
	<circle class="st2" cx="329.8" cy="109.4" r="7.1"/>
</g>
</svg>
