<svg xmlns="http://www.w3.org/2000/svg" viewBox="0 0 512.001 512.001" enable-background="new 0 0 512.001 512.001"><style type="text/css">.st{fill:#68a3ab;}</style><path class="st" d="M503.83 307.741h-495.66c-4.512 0-8.17 3.657-8.17 8.17v87.149c0 4.513 3.658 8.17 8.17 8.17h8.17v57.192c0 4.513 3.658 8.17 8.17 8.17h65.362c4.512 0 8.17-3.657 8.17-8.17v-32.681c0-4.513-3.658-8.17-8.17-8.17-4.512 0-8.17 3.657-8.17 8.17v24.511h-49.021v-49.022h446.638v49.021h-49.021v-24.511c0-4.513-3.657-8.17-8.17-8.17s-8.17 3.657-8.17 8.17v32.681c0 4.513 3.657 8.17 8.17 8.17h65.362c4.513 0 8.17-3.657 8.17-8.17v-57.191h8.17c4.513 0 8.17-3.657 8.17-8.17v-87.149c0-4.513-3.657-8.17-8.17-8.17zm-8.17 87.148h-479.32v-38.118c118.177.239 179.555 5.632 238.944 10.852 59.741 5.252 121.48 10.678 240.375 10.917v16.349zm0-32.689c-118.177-.239-179.554-5.632-238.944-10.852-59.741-5.252-121.48-10.678-240.375-10.917v-16.349h479.319v38.118zm-328.606-206.094l-.062-.218c-5.62-19.24-23.408-33.341-44.439-33.341-5.324 0-10.557.904-15.553 2.688-4.25 1.516-6.466 6.191-4.949 10.44 1.516 4.25 6.193 6.469 10.44 4.949 3.229-1.153 6.615-1.736 10.061-1.736 10.048 0 18.951 4.978 24.389 12.593-20.502 5.081-36.672 21.251-41.752 41.753-7.615-5.436-12.593-14.338-12.593-24.386 0-3.447.584-6.831 1.736-10.061 1.516-4.25-.701-8.924-4.95-10.44-4.25-1.518-8.924.7-10.44 4.949-1.782 4.997-2.686 10.229-2.686 15.553 0 21.013 14.076 38.789 33.29 44.424l.271.077c4.049 1.16 8.318 1.795 12.736 1.795 25.529 0 46.298-20.769 46.298-46.298-.001-4.419-.636-8.691-1.797-12.741zm-44.501 42.699c-.626 0-1.246-.026-1.864-.064 3.273-15.919 15.839-28.485 31.757-31.757.038.617.064 1.237.064 1.864.001 16.517-13.438 29.957-29.957 29.957zm16.341-152.511h-32.681c-58.567 0-106.213 47.646-106.213 106.213v32.681c0 58.565 47.646 106.212 106.213 106.212h32.681c58.566 0 106.213-47.646 106.213-106.213v-32.681c-.001-58.566-47.647-106.212-106.213-106.212zm89.872 138.894c0 49.555-40.316 89.872-89.872 89.872h-32.681c-49.556 0-89.872-40.317-89.872-89.872v-32.681c0-49.555 40.316-89.872 89.872-89.872h32.681c49.556 0 89.872 40.317 89.872 89.872v32.681zm-89.872-106.214h-32.681c-40.546 0-73.532 32.986-73.532 73.532v32.681c0 40.545 32.986 73.532 73.532 73.532h32.681c40.546 0 73.532-32.986 73.532-73.532v-32.681c0-40.546-32.986-73.532-73.532-73.532zm57.191 106.212c0 31.535-25.656 57.192-57.192 57.192h-32.681c-31.536 0-57.191-25.657-57.191-57.192v-32.681c0-31.535 25.656-57.191 57.191-57.191h32.681c31.536 0 57.192 25.657 57.192 57.191v32.681zm315.916 19.066c-.001-6.795-1.642-13.325-4.784-19.198 3.021-4.677 4.783-10.239 4.783-16.208 0-13.037-2.071-25.676-5.917-37.576l-.08-.296-.129-.336c-8.016-24.341-23.489-45.533-43.961-60.592l-.431-.348-.368-.24c-12.307-8.9-26.387-15.591-41.709-19.446v-4.542c0-3.966-2.848-7.359-6.754-8.047-15.258-2.685-31.149-2.685-46.407 0-3.906.688-6.754 4.081-6.754 8.047v4.543c-15.324 3.855-29.403 10.547-41.709 19.446l-.368.24-.431.348c-20.472 15.059-35.947 36.253-43.961 60.594l-.127.334-.08.296c-3.847 11.899-5.917 24.539-5.917 37.576 0 5.97 1.763 11.532 4.783 16.208-3.143 5.873-4.783 12.402-4.783 19.197 0 8.39 2.511 16.392 7.179 23.149-4.668 6.757-7.179 14.759-7.179 23.149 0 22.526 18.325 40.851 40.851 40.851h103.489c4.513 0 8.17-3.657 8.17-8.17v-169.379c19.922 10.82 32.681 31.702 32.681 54.994 0 16.518 13.439 29.957 29.957 29.957 4.363 0 8.507-.946 12.25-2.63.897 2.568 1.367 5.283 1.367 8.077 0 6.562-2.561 12.729-7.211 17.362-1.538 1.533-2.403 3.615-2.403 5.788s.865 4.254 2.403 5.788c4.651 4.633 7.211 10.799 7.211 17.362 0 13.515-10.996 24.511-24.511 24.511h-27.234c-4.513 0-8.17 3.657-8.17 8.17s3.657 8.17 8.17 8.17h27.234c22.526 0 40.851-18.325 40.851-40.851 0-8.39-2.511-16.392-7.179-23.149 4.667-6.757 7.178-14.758 7.178-23.149zm-152.512 70.806h-51.745c-13.515.002-24.511-10.994-24.511-24.508 0-6.562 2.561-12.729 7.21-17.362 1.538-1.533 2.403-3.615 2.403-5.788s-.865-4.254-2.403-5.788c-4.651-4.633-7.21-10.799-7.21-17.362 0-2.793.471-5.509 1.367-8.077 3.743 1.684 7.887 2.63 12.25 2.63 16.518 0 29.957-13.439 29.957-29.957 0-23.294 12.759-44.175 32.681-54.994v161.206zm0-179.273c-29.554 12.097-49.021 40.741-49.021 73.061 0 7.509-6.108 13.617-13.617 13.617-3.704 0-7.063-1.491-9.521-3.899l-.096-.087c-2.47-2.466-4-5.873-4-9.631 0-8.558 1.05-16.911 2.997-24.946l2.266.736c.84.272 1.691.402 2.527.402 3.443 0 6.646-2.195 7.768-5.647 1.394-4.291-.953-8.901-5.244-10.296l-2.273-.739c6.462-15.613 16.564-29.446 29.34-40.35l1.393 1.917c1.598 2.201 4.089 3.369 6.616 3.369 1.665 0 3.345-.508 4.795-1.562 3.652-2.653 4.46-7.761 1.807-11.412l-1.402-1.93c7.898-4.871 16.502-8.75 25.665-11.44v28.837zm43.575-39.162v218.435h-27.234v-222.527c9.032-1.051 18.202-1.051 27.234 0v4.092zm88.595 121.856l-.096.087c-2.458 2.408-5.816 3.899-9.521 3.899-7.509-.001-13.617-6.11-13.617-13.618 0-32.32-19.467-60.964-49.021-73.061v-28.837c9.164 2.691 17.768 6.571 25.665 11.44l-1.402 1.93c-2.653 3.651-1.843 8.76 1.807 11.412 1.45 1.055 3.13 1.562 4.795 1.562 2.525 0 5.018-1.169 6.616-3.369l1.393-1.917c12.775 10.904 22.878 24.737 29.34 40.351l-2.273.739c-4.291 1.394-6.64 6.005-5.244 10.296 1.122 3.452 4.325 5.647 7.768 5.647.838 0 1.689-.13 2.527-.402l2.266-.736c1.947 8.034 2.997 16.387 2.997 24.946.001 3.758-1.53 7.165-4 9.631z"/></svg>