<?xml version="1.0" encoding="utf-8"?>
<!-- Generator: Adobe Illustrator 19.1.1, SVG Export Plug-In . SVG Version: 6.00 Build 0)  -->
<svg version="1.1" id="Layer_1" xmlns="http://www.w3.org/2000/svg" xmlns:xlink="http://www.w3.org/1999/xlink" x="0px" y="0px"
	 viewBox="6 -6 512 512" style="enable-background:new 6 -6 512 512;" xml:space="preserve">
<style type="text/css">
	.st0{fill:#68A3AB;}
</style>
<g>
	<g>
		<path class="st0" d="M493.5,266.3h-8.9c0.5-3.8,0.7-7.7,0.7-11.6c0-48.4-39.3-87.8-87.6-87.8c-1.5,0-3.1,0-4.7,0.1
			c-16.2-23.9-43.6-38.5-72.6-38.5c-8.4,0-16.6,1.2-24.5,3.5V78.4c0-4.5-3.7-8.2-8.2-8.2c-37.8,0-71,19.9-89.9,49.7V2.2
			c0-4.5-3.7-8.2-8.2-8.2H157c-4.5,0-8.2,3.7-8.2,8.2v136.3c0,4.5,3.7,8.2,8.2,8.2s8.2-3.7,8.2-8.2V10.3h16.3v156.9
			c-9.9-2.9-20.4-4.4-31.2-4.4c-6.1,0-12,0.5-17.9,1.4V2.2c0-4.5-3.7-8.2-8.2-8.2H91.6c-4.5,0-8.2,3.7-8.2,8.2v149.5
			c0,4.5,3.7,8.2,8.2,8.2s8.2-3.7,8.2-8.2V10.3h16.3v157.9c-42.4,13.7-73.8,52.1-77.2,98.1h-8.5C17,266.3,6,277.3,6,290.9
			s11,24.5,24.5,24.5h8.4C43.2,421.2,130.6,506,237.5,506h49c106.9,0,194.3-84.8,198.6-190.6h8.4c13.5,0,24.5-11,24.5-24.5
			S507,266.3,493.5,266.3z M295.9,149.3c7.8-2.8,16.1-4.3,24.5-4.3c25,0,48.5,13.4,61.4,34.9c1.6,2.8,4.7,4.3,7.9,3.9
			c2.7-0.3,5.4-0.5,8-0.5c39.3,0,71.3,32,71.3,71.4c0,3.9-0.3,7.8-0.9,11.6h-73.8l27.5-27.5c3.2-3.2,3.2-8.4,0-11.6
			c-3.2-3.2-8.4-3.2-11.6,0l-39,39h-42.6v-78.6c0-4.5-3.7-8.2-8.2-8.2s-8.2,3.7-8.2,8.2v78.6h-16.4V149.3z M279.5,87v16.4
			c-30.1,3.3-55.4,25-63.1,54.9c-1.1,4.4,1.5,8.8,5.9,9.9c0.7,0.2,1.4,0.3,2,0.3c3.6,0,7-2.5,7.9-6.1c5.8-22.7,24.6-39.2,47.2-42.4
			v146.5h-17.9c-3-41.1-28.3-76-63.8-92.8C199.4,128.1,234.8,91,279.5,87z M150.3,179.2c49.8,0,90.8,38.4,95,87.1h-16.4
			c-4.1-39.7-37.8-70.8-78.6-70.8c-14.6,0-28.9,4-41.4,11.7c-3.8,2.4-5,7.4-2.7,11.2c2.4,3.8,7.4,5,11.2,2.7
			c9.8-6.1,21.2-9.3,32.8-9.3c31.8,0,58.1,23.8,62.1,54.5h-16.5c-3.9-21.6-22.8-38.1-45.6-38.1c-22.7,0-41.7,16.5-45.6,38.1H88.2
			c1.2-8.8,4.1-17.2,8.8-24.8c2.4-3.8,1.2-8.9-2.6-11.2c-3.8-2.4-8.9-1.2-11.2,2.6c-6.3,10.2-10.2,21.6-11.4,33.4H55.4
			C59.5,217.6,100.5,179.2,150.3,179.2z M179.2,266.3h-57.6c3.6-12.6,15.1-21.8,28.8-21.8C164,244.6,175.6,253.8,179.2,266.3z
			 M493.5,299H112.2c-4.5,0-8.2,3.7-8.2,8.2c0,4.5,3.7,8.2,8.2,8.2h356.6c-4.3,96.8-84.4,174.3-182.3,174.3h-49
			c-97.9,0-178-77.5-182.3-174.3h24.3c4.5,0,8.2-3.7,8.2-8.2c0-4.5-3.7-8.2-8.2-8.2h-49c-4.5,0-8.2-3.7-8.2-8.2
			c0-4.5,3.7-8.2,8.2-8.2h444.2c0.1,0,18.7,0,18.7,0c4.5,0,8.2,3.7,8.2,8.2C501.7,295.4,498,299,493.5,299z"/>
	</g>
</g>
</svg>
