<svg xmlns="http://www.w3.org/2000/svg" viewBox="56 57.9 397.8 398.1" enable-background="new 56 57.9 397.8 398.1"><style type="text/css">.st{fill:#ffd477;}</style><path class="st" d="M412.9 57.9h-316c-22.5 0-40.9 18.3-40.9 40.9v316.3c0 22.5 18.3 40.9 40.9 40.9h316c22.5 0 40.9-18.3 40.9-40.9v-316.3c-.1-22.6-18.4-40.9-40.9-40.9zm-226.1 16.3h136.2v16.3h-136.2v-16.3zm0 32.7h136.2v19.1c0 4.5-3.7 8.2-8.2 8.2h-119.8c-4.5 0-8.2-3.7-8.2-8.2v-19.1zm250.6 308.1c0 13.5-11 24.5-24.5 24.5h-316c-13.5 0-24.5-11-24.5-24.5v-316.2c0-13.5 11-24.5 24.5-24.5h73.5v51.7c0 13.5 11 24.5 24.5 24.5h119.8c13.5 0 24.5-11 24.5-24.5v-51.7h73.7c13.5 0 24.5 11 24.5 24.5v316.2zm-24.5-324.4h-49c-4.5 0-8.2 3.7-8.2 8.2s3.7 8.2 8.2 8.2h40.9v300h-299.7v-300.1h40.9c4.5 0 8.2-3.7 8.2-8.2s-3.7-8.2-8.2-8.2h-49.1c-4.5 0-8.2 3.7-8.2 8.2v316.3c0 4.5 3.7 8.2 8.2 8.2h316c4.5 0 8.2-3.7 8.2-8.2v-316.2c-.1-4.6-3.7-8.2-8.2-8.2zm-163.4 84.8c-4.5 0-8.2 3.7-8.2 8.2v44.1h-16.4v-44.1c0-4.5-3.7-8.2-8.2-8.2s-8.2 3.7-8.2 8.2v44.1h-16.3v-44.1c0-4.5-3.7-8.2-8.2-8.2s-8.2 3.7-8.2 8.2v65.4c0 19.7 14.1 36.2 32.7 40v84.1c0 4.5 3.7 8.2 8.2 8.2s8.2-3.7 8.2-8.2v-84.1c18.6-3.8 32.7-20.3 32.7-40v-65.4c0-4.5-3.6-8.2-8.1-8.2zm-8.2 73.6c0 13.5-11 24.5-24.5 24.5s-24.5-11-24.5-24.5v-4.9h49v4.9zm62.6-73.6c-16.5 0-30 13.4-30 30v83.9c0 16.5 13.4 30 30 30h13.6v53.9c0 4.5 3.7 8.2 8.2 8.2s8.2-3.7 8.2-8.2v-167.8c0-16.5-13.5-30-30-30zm13.6 127.5h-13.6c-7.5 0-13.6-6.1-13.6-13.6v-83.9c0-7.5 6.1-13.6 13.6-13.6s13.6 6.1 13.6 13.6v97.5z"/></svg>